<?xml version="1.0" encoding="utf-8"?>
<!-- Generator: Adobe Illustrator 22.0.0, SVG Export Plug-In . SVG Version: 6.00 Build 0)  -->
<svg version="1.1" xmlns="http://www.w3.org/2000/svg" xmlns:xlink="http://www.w3.org/1999/xlink" x="0px" y="0px"
	 viewBox="0 0 750 500" style="enable-background:new 0 0 750 500;" xml:space="preserve">
<style type="text/css">
	.st0{fill:url(#SVGID_1_);}
	.st1{opacity:0.67;clip-path:url(#SVGID_3_);}
	.st2{fill:url(#SVGID_4_);}
	.st3{fill:url(#SVGID_5_);}
	.st4{fill:url(#SVGID_6_);}
	.st5{fill:url(#SVGID_7_);}
	.st6{opacity:0.51;fill:url(#SVGID_8_);}
	.st7{fill:none;stroke:url(#SVGID_9_);stroke-miterlimit:10;}
	.st8{fill:none;stroke:url(#SVGID_10_);stroke-miterlimit:10;}
	.st9{fill:none;stroke:url(#SVGID_11_);stroke-miterlimit:10;}
	.st10{fill:none;stroke:url(#SVGID_12_);stroke-miterlimit:10;}
	.st11{fill:none;stroke:url(#SVGID_13_);stroke-miterlimit:10;}
	.st12{fill:none;stroke:url(#SVGID_14_);stroke-miterlimit:10;}
	.st13{fill:none;stroke:url(#SVGID_15_);stroke-miterlimit:10;}
	.st14{fill:none;stroke:url(#SVGID_16_);stroke-miterlimit:10;}
	.st15{fill:none;stroke:url(#SVGID_17_);stroke-miterlimit:10;}
	.st16{fill:none;stroke:url(#SVGID_18_);stroke-miterlimit:10;}
	.st17{fill:none;stroke:url(#SVGID_19_);stroke-miterlimit:10;}
	.st18{fill:none;stroke:url(#SVGID_20_);stroke-miterlimit:10;}
	.st19{fill:none;stroke:url(#SVGID_21_);stroke-miterlimit:10;}
	.st20{fill:none;stroke:url(#SVGID_22_);stroke-miterlimit:10;}
	.st21{fill:none;stroke:url(#SVGID_23_);stroke-miterlimit:10;}
	.st22{fill:none;stroke:url(#SVGID_24_);stroke-miterlimit:10;}
	.st23{fill:none;stroke:url(#SVGID_25_);stroke-miterlimit:10;}
	.st24{fill:none;stroke:url(#SVGID_26_);stroke-miterlimit:10;}
	.st25{fill:none;stroke:url(#SVGID_27_);stroke-miterlimit:10;}
	.st26{fill:none;stroke:url(#SVGID_28_);stroke-miterlimit:10;}
	.st27{fill:none;stroke:url(#SVGID_29_);stroke-miterlimit:10;}
	.st28{fill:none;stroke:url(#SVGID_30_);stroke-miterlimit:10;}
	.st29{fill:none;stroke:url(#SVGID_31_);stroke-miterlimit:10;}
	.st30{fill:none;stroke:url(#SVGID_32_);stroke-miterlimit:10;}
	.st31{fill:none;stroke:url(#SVGID_33_);stroke-miterlimit:10;}
	.st32{fill:none;stroke:url(#SVGID_34_);stroke-miterlimit:10;}
	.st33{fill:none;stroke:url(#SVGID_35_);stroke-miterlimit:10;}
	.st34{fill:none;stroke:url(#SVGID_36_);stroke-miterlimit:10;}
	.st35{fill:none;stroke:url(#SVGID_37_);stroke-miterlimit:10;}
	.st36{fill:none;stroke:url(#SVGID_38_);stroke-miterlimit:10;}
	.st37{fill:none;stroke:url(#SVGID_39_);stroke-miterlimit:10;}
	.st38{fill:none;stroke:url(#SVGID_40_);stroke-miterlimit:10;}
	.st39{fill:none;stroke:url(#SVGID_41_);stroke-miterlimit:10;}
	.st40{fill:none;stroke:url(#SVGID_42_);stroke-miterlimit:10;}
	.st41{fill:none;stroke:url(#SVGID_43_);stroke-miterlimit:10;}
	.st42{fill:none;stroke:url(#SVGID_44_);stroke-miterlimit:10;}
	.st43{fill:url(#SVGID_45_);}
	.st44{fill:url(#SVGID_46_);}
	.st45{fill:url(#SVGID_47_);}
	.st46{fill:url(#SVGID_48_);}
	.st47{opacity:0.51;fill:url(#SVGID_49_);}
	.st48{fill:none;stroke:url(#SVGID_50_);stroke-miterlimit:10;}
	.st49{fill:none;stroke:url(#SVGID_51_);stroke-miterlimit:10;}
	.st50{fill:none;stroke:url(#SVGID_52_);stroke-miterlimit:10;}
	.st51{fill:none;stroke:url(#SVGID_53_);stroke-miterlimit:10;}
	.st52{fill:none;stroke:url(#SVGID_54_);stroke-miterlimit:10;}
	.st53{fill:none;stroke:url(#SVGID_55_);stroke-miterlimit:10;}
	.st54{fill:none;stroke:url(#SVGID_56_);stroke-miterlimit:10;}
	.st55{fill:none;stroke:url(#SVGID_57_);stroke-miterlimit:10;}
	.st56{fill:none;stroke:url(#SVGID_58_);stroke-miterlimit:10;}
	.st57{fill:none;stroke:url(#SVGID_59_);stroke-miterlimit:10;}
	.st58{fill:none;stroke:url(#SVGID_60_);stroke-miterlimit:10;}
	.st59{fill:none;stroke:url(#SVGID_61_);stroke-miterlimit:10;}
	.st60{fill:none;stroke:url(#SVGID_62_);stroke-miterlimit:10;}
	.st61{fill:none;stroke:url(#SVGID_63_);stroke-miterlimit:10;}
	.st62{fill:none;stroke:url(#SVGID_64_);stroke-miterlimit:10;}
	.st63{fill:none;stroke:url(#SVGID_65_);stroke-miterlimit:10;}
	.st64{fill:none;stroke:url(#SVGID_66_);stroke-miterlimit:10;}
	.st65{fill:none;stroke:url(#SVGID_67_);stroke-miterlimit:10;}
	.st66{fill:none;stroke:url(#SVGID_68_);stroke-miterlimit:10;}
	.st67{fill:none;stroke:url(#SVGID_69_);stroke-miterlimit:10;}
	.st68{fill:none;stroke:url(#SVGID_70_);stroke-miterlimit:10;}
	.st69{fill:none;stroke:url(#SVGID_71_);stroke-miterlimit:10;}
	.st70{fill:none;stroke:url(#SVGID_72_);stroke-miterlimit:10;}
	.st71{fill:none;stroke:url(#SVGID_73_);stroke-miterlimit:10;}
	.st72{fill:none;stroke:url(#SVGID_74_);stroke-miterlimit:10;}
	.st73{fill:none;stroke:url(#SVGID_75_);stroke-miterlimit:10;}
	.st74{fill:none;stroke:url(#SVGID_76_);stroke-miterlimit:10;}
	.st75{fill:none;stroke:url(#SVGID_77_);stroke-miterlimit:10;}
	.st76{fill:none;stroke:url(#SVGID_78_);stroke-miterlimit:10;}
	.st77{fill:none;stroke:url(#SVGID_79_);stroke-miterlimit:10;}
	.st78{fill:none;stroke:url(#SVGID_80_);stroke-miterlimit:10;}
	.st79{fill:none;stroke:url(#SVGID_81_);stroke-miterlimit:10;}
	.st80{fill:none;stroke:url(#SVGID_82_);stroke-miterlimit:10;}
	.st81{fill:none;stroke:url(#SVGID_83_);stroke-miterlimit:10;}
	.st82{fill:none;stroke:url(#SVGID_84_);stroke-miterlimit:10;}
	.st83{fill:none;stroke:url(#SVGID_85_);stroke-miterlimit:10;}
</style>
<g id="BACKGROUND">
	<linearGradient id="SVGID_1_" gradientUnits="userSpaceOnUse" x1="754.2343" y1="550.4255" x2="37.2334" y2="-17.5753">
		<stop  offset="0" style="stop-color:#FFFFFF"/>
		<stop  offset="1" style="stop-color:#E8E8E8"/>
	</linearGradient>
	<rect class="st0" width="750" height="500"/>
</g>
<g id="OBJECTS">
	<g>
		<defs>
			<rect id="SVGID_2_" width="750" height="500"/>
		</defs>
		<clipPath id="SVGID_3_">
			<use xlink:href="#SVGID_2_"  style="overflow:visible;"/>
		</clipPath>
		<g class="st1">
			<g>
				
					<linearGradient id="SVGID_4_" gradientUnits="userSpaceOnUse" x1="351.359" y1="86.729" x2="421.2037" y2="227.4309" gradientTransform="matrix(0.9778 0.2097 -0.2097 0.9778 20.8086 -86.0934)">
					<stop  offset="0" style="stop-color:#FFFFFF"/>
					<stop  offset="1" style="stop-color:#E8E8E8"/>
				</linearGradient>
				<path class="st2" d="M614.9,103.3c-153.1,18.4-308.2-65.6-459.2-35C79.9,83.7,13.5,126.6-50.7,168.8
					c-18.8,12.4-45.1,24.5-62.2,9.7c-11.8-10.3-11.9-28-10.7-43.4c4.2-56.7,11.8-113.2,22.7-169c11.5-58.8,29.9-121.7,78.9-157
					c47.9-34.5,112.7-33.8,172-28.7C353.3-201.9,551.9-148.5,747.8-91c19.6,5.8,40.7,12.6,52.4,29.1c11.2,15.7,11.1,37,4.6,54.9
					C778.6,65,685.2,94.8,614.9,103.3z"/>
				
					<linearGradient id="SVGID_5_" gradientUnits="userSpaceOnUse" x1="-14.6265" y1="-131.8827" x2="669.0465" y2="321.4135" gradientTransform="matrix(0.9778 0.2097 -0.2097 0.9778 20.8086 -86.0934)">
					<stop  offset="0" style="stop-color:#FFFFFF"/>
					<stop  offset="1" style="stop-color:#E8E8E8"/>
				</linearGradient>
				<path class="st3" d="M771.2-57.6c15.4,18.4,25.8,41.1,29.6,64.7c2.4,14.6,2.2,29.8-1.3,44.2c-1.7,7.1-4.2,14-7.6,20.4
					c-1.7,3.3-3.6,6.4-5.7,9.4c-2.2,3.2-2.6,7.2-5.1,10.4c-2.1,2.6-4.3,2.5-7.1,3.6c-2.6,0.9-5.1,2.9-7.6,4.1
					c-5.3,2.6-10.7,4.8-16.3,6.8c-11.3,3.9-23.1,6.5-34.9,8c-32.9,4.2-66.6,0.6-98.9-6.8c-83.2-19-160.3-58.3-242.2-82.4
					c-81.9-24.1-175-31.5-248.2,10.9C78.5,63.1,44.9,108.3,8.5,149c-21.1,23.5-43.4,45.9-67,67c-10.8,9.7-24,19.8-38.6,17.6
					c-22.5-3.3-30.1-31.1-31.7-53.4c-3.5-49.6-2.3-99.4,3.6-148.7c6.9-57.5,21.7-117.1,62.1-159c38.4-39.8,94.9-58,150.3-65.9
					c94.7-13.5,191.2-1.4,286.2,10.7c87.3,11.1,175.1,22.4,259.5,47.1C684.5-120.3,736.9-98.6,771.2-57.6z"/>
				
					<linearGradient id="SVGID_6_" gradientUnits="userSpaceOnUse" x1="362.9865" y1="47.8804" x2="461.338" y2="199.9704" gradientTransform="matrix(0.9778 0.2097 -0.2097 0.9778 20.8086 -86.0934)">
					<stop  offset="0" style="stop-color:#FFFFFF"/>
					<stop  offset="1" style="stop-color:#E8E8E8"/>
				</linearGradient>
				<path class="st4" d="M589.6,50.6c-81.5-11.2-150.4-65.2-229-89.4C262.6-68.8,148.9-47.8,73.8,20C51.2,40.4,31.9,64.7,6.4,81.5
					s-60.5,24.6-87,8.9c-20.2-12-31.1-35-36.3-57.7c-20.3-87.6,28.8-180.1,102.6-232.3C59.4-251.8,153-269.8,244-273.7
					c117.8-5,236,11.4,350.8,39c50.8,12.2,102.5,27.3,143.8,58.9c37.1,28.4,75.7,85.3,61.9,134.2c-5.9,21-34.3,41.2-51.7,53.2
					c-21.4,14.8-45.3,25.9-70.5,32.8C649.7,52.3,619.3,54.7,589.6,50.6z"/>
				
					<linearGradient id="SVGID_7_" gradientUnits="userSpaceOnUse" x1="-44.5623" y1="230.6576" x2="517.1244" y2="-270.306" gradientTransform="matrix(0.9778 0.2097 -0.2097 0.9778 20.8086 -86.0934)">
					<stop  offset="0" style="stop-color:#FFFFFF"/>
					<stop  offset="1" style="stop-color:#E8E8E8"/>
				</linearGradient>
				<path class="st5" d="M620.9-10C565.4-2.8,509.3-18.2,457-38.3c-52.3-20.1-102.9-45.3-157.2-58.9c-46.1-11.5-96.7-14.1-139.1,6.5
					C114.3-68.2,85.2-22.2,61.2,22.9c-23.9,45.1-46.3,93-86,125.5c-22.6,18.5-56.8,30.8-81,13.9c-23.6-16.4-24.1-49.9-22.2-78.2
					c2.7-40.2,5.4-80.7,15.4-119.7s27.8-76.9,56.9-105.1C-13.8-181,45.9-197,103.5-208.3c175.5-34.5,359.7-38.4,532.8,8.6
					c27.2,7.4,54.7,16.3,77.2,33c22.8,16.9,47.9,48,30.5,75.3c-17.7,27.8-38.5,50.4-68.9,65.2C658.1-18,639.7-12.5,620.9-10z"/>
				
					<linearGradient id="SVGID_8_" gradientUnits="userSpaceOnUse" x1="-38.5519" y1="162.1231" x2="344.9781" y2="-167.7729" gradientTransform="matrix(0.9778 0.2097 -0.2097 0.9778 20.8086 -86.0934)">
					<stop  offset="0" style="stop-color:#FFFFFF"/>
					<stop  offset="1" style="stop-color:#E8E8E8"/>
				</linearGradient>
				<path class="st6" d="M148.7,106.9C197.1,67.6,243,18,305.1,8.7C360,0.5,415.7,26.3,470.7,19.5C562.4,8.1,624-88.6,715.6-100.4
					c13.1-1.7,26.6-1.6,39.2-5.5c12.6-3.9,24.6-13.2,26.7-26c3.5-21.6-20.7-36.9-41.5-44.8c-64.3-24.5-132.2-38.4-200.1-49.2
					c-129.5-20.5-260.6-30-391.6-30.3c-58.6-0.1-120.7,2.7-169.1,34.7c-61.3,40.6-84.9,116.8-104.3,187.1
					c-18.1,65.7-40.2,143.7-14.5,210.7c9.6,25.1,64.8,19.4,87.5,17.6c34.5-2.8,68.2-12.2,99.8-25.7
					C84.1,152.8,118.1,131.7,148.7,106.9z"/>
				<g>
					
						<linearGradient id="SVGID_9_" gradientUnits="userSpaceOnUse" x1="-16.9497" y1="424.9309" x2="598.0845" y2="-123.6129" gradientTransform="matrix(0.9778 0.2097 -0.2097 0.9778 20.8086 -86.0934)">
						<stop  offset="0" style="stop-color:#FFFFFF"/>
						<stop  offset="1" style="stop-color:#E8E8E8"/>
					</linearGradient>
					<path class="st7" d="M729.3,90.4c-58.2,30.1-130.3,21-191.6-3.3s-115.9-62.5-175-91.7C303.5-33.8,235.8-54,171.8-38.7
						C118.2-25.9,73.7,10.3,37.3,50.9C1,91.5-29.1,137.3-66.1,177.3c-21.3,23-51.2,45.7-81.8,37"/>
					
						<linearGradient id="SVGID_10_" gradientUnits="userSpaceOnUse" x1="-16.6084" y1="427.7454" x2="604.6371" y2="-126.3383" gradientTransform="matrix(0.9778 0.2097 -0.2097 0.9778 20.8086 -86.0934)">
						<stop  offset="0" style="stop-color:#FFFFFF"/>
						<stop  offset="1" style="stop-color:#E8E8E8"/>
					</linearGradient>
					<path class="st8" d="M-149,215.6c24.1,7.6,48.4-4.1,68.3-20.4c5.2-4.2,10.1-8.7,14.6-13.2c12.7-12.7,24.7-26.3,36.4-40.1
						c23.5-27.9,45.7-57,70.6-83.9c21.5-23.3,45.6-45.2,72.6-62.1c19.6-12.3,40.8-21.9,63.6-27.4c44.9-10.8,91.7-4.7,135.9,10.8
						c19.2,6.7,37.9,15.2,55.8,24.4c25.6,13.1,50.4,27.8,75.6,41.5c31.4,17,62.9,32.4,95.7,43.8c1.7,0.6,3.5,1.2,5.2,1.8
						c61.3,20.4,131.8,25.3,187.9-7.2"/>
					
						<linearGradient id="SVGID_11_" gradientUnits="userSpaceOnUse" x1="-16.1852" y1="430.6513" x2="611.3017" y2="-128.9988" gradientTransform="matrix(0.9778 0.2097 -0.2097 0.9778 20.8086 -86.0934)">
						<stop  offset="0" style="stop-color:#FFFFFF"/>
						<stop  offset="1" style="stop-color:#E8E8E8"/>
					</linearGradient>
					<path class="st9" d="M-150.1,216.9c24,8.2,48.5-2.3,69-17.7c5.3-4,10.4-8.3,15.1-12.6c13.2-12.2,25.6-25.4,37.7-38.9
						c24.4-27.3,47.3-56,72.8-82.7c22-23.1,46.5-45,73.7-61.9c19.8-12.3,41.2-22,64.1-27.5c45.3-11,92.6-5.3,136.8,10.8
						c19.3,7,37.9,15.8,55.8,25.4c25.6,13.7,50.4,28.7,76,42c31.9,16.5,63.9,29.8,96.7,39.2c1.7,0.5,3.5,1,5.2,1.5
						c61.2,16.5,130.2,17.2,184.1-17.6"/>
					
						<linearGradient id="SVGID_12_" gradientUnits="userSpaceOnUse" x1="-15.6215" y1="433.7143" x2="618.1066" y2="-131.5024" gradientTransform="matrix(0.9778 0.2097 -0.2097 0.9778 20.8086 -86.0934)">
						<stop  offset="0" style="stop-color:#FFFFFF"/>
						<stop  offset="1" style="stop-color:#E8E8E8"/>
					</linearGradient>
					<path class="st10" d="M-151.3,218.2c23.8,8.9,48.7-0.5,69.7-15c5.5-3.7,10.7-7.8,15.6-12c13.7-11.7,26.6-24.5,39.1-37.7
						C-1.6,126.9,22.1,98.5,48.1,72C70.6,49,95.4,27.3,122.9,10.4c20-12.3,41.6-22,64.6-27.6c45.7-11.2,93.4-5.9,137.7,10.7
						C344.6,0.7,363.1,10,381,19.9c25.5,14.2,50.4,29.6,76.4,42.4c32.4,15.9,64.9,27.3,97.8,34.5c1.7,0.4,3.5,0.8,5.2,1.1
						c61.2,12.6,128.6,9.1,180.3-28.1"/>
					
						<linearGradient id="SVGID_13_" gradientUnits="userSpaceOnUse" x1="-14.8975" y1="436.9565" x2="625.0717" y2="-133.8267" gradientTransform="matrix(0.9778 0.2097 -0.2097 0.9778 20.8086 -86.0934)">
						<stop  offset="0" style="stop-color:#FFFFFF"/>
						<stop  offset="1" style="stop-color:#E8E8E8"/>
					</linearGradient>
					<path class="st11" d="M-152.4,219.5c23.7,9.5,48.9,1.2,70.4-12.2c5.6-3.5,11-7.4,16.1-11.3c14.1-11.1,27.5-23.6,40.4-36.5
						c26.1-26,50.5-54.1,77.1-80.4c23-22.8,48.1-44.4,76-61.4c20.2-12.3,42-22,65.2-27.8c46.1-11.4,94.2-6.5,138.6,10.7
						c19.3,7.5,37.8,17.2,55.6,27.4c25.5,14.7,50.4,30.5,76.9,42.9c32.9,15.3,66,24.7,98.9,29.8c1.7,0.3,3.5,0.5,5.2,0.8
						c61.1,8.7,127,0.9,176.6-38.5"/>
					
						<linearGradient id="SVGID_14_" gradientUnits="userSpaceOnUse" x1="-13.9909" y1="440.403" x2="632.2192" y2="-135.9464" gradientTransform="matrix(0.9778 0.2097 -0.2097 0.9778 20.8086 -86.0934)">
						<stop  offset="0" style="stop-color:#FFFFFF"/>
						<stop  offset="1" style="stop-color:#E8E8E8"/>
					</linearGradient>
					<path class="st12" d="M-153.5,220.8c23.5,10.2,49.1,3,71.1-9.5c5.8-3.3,11.3-6.9,16.6-10.7c14.6-10.6,28.4-22.7,41.8-35.3
						C3,139.8,28.2,112.1,55.3,86c23.5-22.6,49-44.2,77.1-61.1c20.3-12.3,42.4-22,65.7-27.9c46.5-11.6,95-7.1,139.6,10.7
						c19.4,7.7,37.7,17.8,55.5,28.4c25.5,15.2,50.4,31.4,77.3,43.3c33.4,14.8,67,22.1,99.9,25.2c1.7,0.2,3.5,0.3,5.2,0.4
						c61.1,4.8,125.4-7.2,172.8-49"/>
					
						<linearGradient id="SVGID_15_" gradientUnits="userSpaceOnUse" x1="-12.8766" y1="444.082" x2="639.5741" y2="-137.8333" gradientTransform="matrix(0.9778 0.2097 -0.2097 0.9778 20.8086 -86.0934)">
						<stop  offset="0" style="stop-color:#FFFFFF"/>
						<stop  offset="1" style="stop-color:#E8E8E8"/>
					</linearGradient>
					<path class="st13" d="M-154.6,222.1c23.4,10.8,49.2,4.8,71.8-6.8c5.9-3.1,11.6-6.5,17.1-10.1c15.1-10,29.4-21.8,43.1-34.1
						C5.3,146.2,31.2,118.9,58.9,93c24-22.4,49.8-43.9,78.2-60.8c20.5-12.3,42.7-22.1,66.2-28c46.8-11.8,95.9-7.7,140.5,10.7
						c19.4,8,37.7,18.5,55.5,29.5c25.5,15.7,50.4,32.3,77.7,43.8c33.9,14.2,68.1,19.6,101,20.5c1.7,0.1,3.5,0.1,5.2,0.1
						c61.1,0.9,123.9-15.3,169-59.4"/>
					
						<linearGradient id="SVGID_16_" gradientUnits="userSpaceOnUse" x1="-11.5274" y1="448.0237" x2="647.1633" y2="-139.4569" gradientTransform="matrix(0.9778 0.2097 -0.2097 0.9778 20.8086 -86.0934)">
						<stop  offset="0" style="stop-color:#FFFFFF"/>
						<stop  offset="1" style="stop-color:#E8E8E8"/>
					</linearGradient>
					<path class="st14" d="M-155.7,223.4c23.2,11.5,49.4,6.6,72.5-4.1c6.1-2.8,12-6,17.6-9.4c15.5-9.5,30.3-20.9,44.5-32.9
						c28.7-24.2,55.3-51.2,83.6-76.9c24.5-22.2,50.7-43.6,79.4-60.6c20.7-12.2,43.1-22.1,66.8-28.1C255.9-0.7,305.3,3,350.1,22
						c19.4,8.2,37.7,19.2,55.4,30.5c25.4,16.2,50.4,33.2,78.1,44.2c34.4,13.6,69.1,17,102,15.9c1.7-0.1,3.5-0.1,5.2-0.2
						c61-3,122.3-23.4,165.3-69.9"/>
					
						<linearGradient id="SVGID_17_" gradientUnits="userSpaceOnUse" x1="-9.915" y1="452.2601" x2="655.015" y2="-140.7854" gradientTransform="matrix(0.9778 0.2097 -0.2097 0.9778 20.8086 -86.0934)">
						<stop  offset="0" style="stop-color:#FFFFFF"/>
						<stop  offset="1" style="stop-color:#E8E8E8"/>
					</linearGradient>
					<path class="st15" d="M-156.8,224.7c23.1,12.1,49.6,8.4,73.2-1.4c6.2-2.6,12.3-5.6,18-8.8c16-9,31.2-20,45.8-31.7
						c29.5-23.6,56.9-50.3,85.8-75.7c25-22.1,51.5-43.4,80.5-60.3c20.9-12.2,43.5-22.1,67.3-28.2c47.6-12.2,97.5-8.9,142.3,10.7
						c19.5,8.5,37.6,19.8,55.3,31.5c25.4,16.8,50.4,34.1,78.6,44.6c34.9,13,70.2,14.4,103.1,11.2c1.7-0.2,3.5-0.4,5.2-0.6
						c61-6.9,120.7-31.5,161.5-80.4"/>
					
						<linearGradient id="SVGID_18_" gradientUnits="userSpaceOnUse" x1="-9.0428" y1="455.6661" x2="662.1259" y2="-142.9435" gradientTransform="matrix(0.9778 0.2097 -0.2097 0.9778 20.8086 -86.0934)">
						<stop  offset="0" style="stop-color:#FFFFFF"/>
						<stop  offset="1" style="stop-color:#E8E8E8"/>
					</linearGradient>
					<path class="st16" d="M-157.9,226c22.9,12.8,49.8,10.2,73.9,1.3c6.4-2.4,12.6-5.1,18.5-8.2c16.5-8.4,32.1-19.1,47.2-30.5
						c30.4-23,58.5-49.3,88-74.6C95.2,92.2,122,71,151.3,54c21.1-12.2,43.9-22.1,67.8-28.3c48-12.4,98.3-9.5,143.3,10.7
						c19.5,8.8,37.6,20.5,55.3,32.5c25.4,17.3,50.4,35,79,45.1c35.4,12.5,71.2,11.9,104.2,6.6c1.7-0.3,3.5-0.6,5.2-0.9
						C667,108.8,725.2,80,763.8,28.8"/>
					
						<linearGradient id="SVGID_19_" gradientUnits="userSpaceOnUse" x1="-9.5115" y1="457.5681" x2="667.8947" y2="-146.6047" gradientTransform="matrix(0.9778 0.2097 -0.2097 0.9778 20.8086 -86.0934)">
						<stop  offset="0" style="stop-color:#FFFFFF"/>
						<stop  offset="1" style="stop-color:#E8E8E8"/>
					</linearGradient>
					<path class="st17" d="M-159,227.3c22.8,13.4,50,12,74.6,4c6.5-2.1,12.9-4.7,19-7.5c16.9-7.9,33.1-18.2,48.5-29.3
						c31.2-22.4,60.1-48.4,90.1-73.4c26-21.7,53.2-42.8,82.8-59.8c21.2-12.2,44.3-22.2,68.4-28.5c48.4-12.6,99.1-10.1,144.2,10.7
						c19.5,9,37.5,21.2,55.2,33.5c25.4,17.8,50.4,35.9,79.4,45.5c35.9,11.9,72.3,9.3,105.2,1.9c1.8-0.4,3.5-0.8,5.2-1.2
						c60.9-14.7,117.5-47.7,154-101.3"/>
					
						<linearGradient id="SVGID_20_" gradientUnits="userSpaceOnUse" x1="-9.6473" y1="459.8428" x2="673.9955" y2="-149.8924" gradientTransform="matrix(0.9778 0.2097 -0.2097 0.9778 20.8086 -86.0934)">
						<stop  offset="0" style="stop-color:#FFFFFF"/>
						<stop  offset="1" style="stop-color:#E8E8E8"/>
					</linearGradient>
					<path class="st18" d="M-160.1,228.6c22.6,14,50.2,13.9,75.3,6.7c6.7-1.9,13.2-4.2,19.5-6.9c17.4-7.4,34-17.3,49.9-28.1
						c32.1-21.8,61.7-47.4,92.3-72.2c26.5-21.5,54-42.6,83.9-59.6c21.4-12.2,44.7-22.2,68.9-28.6c48.7-12.8,100-10.8,145.1,10.6
						c19.6,9.3,37.5,21.9,55.1,34.6c25.4,18.3,50.4,36.8,79.8,46c36.4,11.3,73.3,6.8,106.3-2.7c1.8-0.5,3.5-1,5.2-1.6
						C682.1,108.2,737.2,71,771.5,15.1"/>
					
						<linearGradient id="SVGID_21_" gradientUnits="userSpaceOnUse" x1="-9.4439" y1="462.4974" x2="680.4345" y2="-152.7992" gradientTransform="matrix(0.9778 0.2097 -0.2097 0.9778 20.8086 -86.0934)">
						<stop  offset="0" style="stop-color:#FFFFFF"/>
						<stop  offset="1" style="stop-color:#E8E8E8"/>
					</linearGradient>
					<path class="st19" d="M-161.3,229.9c22.5,14.7,50.4,15.7,76,9.4c6.8-1.7,13.5-3.8,20-6.3c17.8-6.9,34.9-16.4,51.2-26.9
						c33-21.2,63.3-46.4,94.5-71.1c27-21.3,54.9-42.3,85-59.3c21.6-12.2,45-22.2,69.4-28.7c49.1-13,100.8-11.4,146.1,10.6
						c19.6,9.5,37.5,22.5,55.1,35.6c25.3,18.8,50.4,37.7,80.2,46.4c36.8,10.8,74.3,4.2,107.3-7.4c1.8-0.6,3.5-1.2,5.2-1.9
						c60.8-22.5,114.3-63.9,146.5-122.2"/>
					
						<linearGradient id="SVGID_22_" gradientUnits="userSpaceOnUse" x1="-8.907" y1="465.5254" x2="687.2058" y2="-155.3318" gradientTransform="matrix(0.9778 0.2097 -0.2097 0.9778 20.8086 -86.0934)">
						<stop  offset="0" style="stop-color:#FFFFFF"/>
						<stop  offset="1" style="stop-color:#E8E8E8"/>
					</linearGradient>
					<path class="st20" d="M-162.4,231.2c22.3,15.3,50.6,17.5,76.7,12.1c7-1.4,13.8-3.3,20.5-5.6c18.3-6.3,35.8-15.5,52.6-25.7
						c33.8-20.6,64.9-45.5,96.7-69.9c27.5-21.2,55.7-42,86.2-59.1c21.8-12.2,45.4-22.3,70-28.8c49.5-13.2,101.6-12,147,10.6
						c19.6,9.8,37.4,23.2,55,36.6c25.3,19.3,50.4,38.6,80.7,46.9c37.3,10.2,75.4,1.6,108.4-12c1.8-0.7,3.5-1.5,5.2-2.2
						c60.8-26.5,112.7-72,142.7-132.6"/>
					
						<linearGradient id="SVGID_23_" gradientUnits="userSpaceOnUse" x1="-8.0549" y1="468.9063" x2="694.2913" y2="-157.5104" gradientTransform="matrix(0.9778 0.2097 -0.2097 0.9778 20.8086 -86.0934)">
						<stop  offset="0" style="stop-color:#FFFFFF"/>
						<stop  offset="1" style="stop-color:#E8E8E8"/>
					</linearGradient>
					<path class="st21" d="M-163.5,232.5c22.2,16,50.8,19.3,77.4,14.8c7.1-1.2,14.1-2.9,21-5c18.7-5.8,36.8-14.6,53.9-24.4
						c34.7-20,66.5-44.5,98.8-68.7c28-21,56.5-41.8,87.3-58.8c21.9-12.2,45.8-22.3,70.5-28.9C295.4,48,347.9,48.8,393.4,72
						c19.7,10,37.4,23.9,54.9,37.6c25.3,19.8,50.4,39.5,81.1,47.3c37.8,9.6,76.4-0.9,109.5-16.7c1.8-0.8,3.5-1.7,5.2-2.6
						C704.8,107.3,755.2,57.5,783-5.4"/>
					
						<linearGradient id="SVGID_24_" gradientUnits="userSpaceOnUse" x1="-6.9149" y1="472.6095" x2="701.6636" y2="-159.3656" gradientTransform="matrix(0.9778 0.2097 -0.2097 0.9778 20.8086 -86.0934)">
						<stop  offset="0" style="stop-color:#FFFFFF"/>
						<stop  offset="1" style="stop-color:#E8E8E8"/>
					</linearGradient>
					<path class="st22" d="M-164.6,233.8c22,16.6,51,21.1,78.1,17.5c7.3-1,14.4-2.4,21.4-4.4c19.2-5.3,37.7-13.6,55.3-23.2
						c35.5-19.4,68.1-43.6,101-67.6c28.5-20.8,57.4-41.5,88.4-58.6c22.1-12.2,46.2-22.3,71-29C301,54.9,354,55.3,399.6,79.1
						c19.7,10.3,37.3,24.5,54.8,38.6c25.3,20.4,50.4,40.4,81.5,47.8c38.3,9.1,77.5-3.5,110.5-21.3c1.8-0.9,3.5-1.9,5.2-2.9
						C712.4,107,761.2,53,786.9-12.3"/>
					
						<linearGradient id="SVGID_25_" gradientUnits="userSpaceOnUse" x1="-5.5251" y1="476.5925" x2="709.2847" y2="-160.9403" gradientTransform="matrix(0.9778 0.2097 -0.2097 0.9778 20.8086 -86.0934)">
						<stop  offset="0" style="stop-color:#FFFFFF"/>
						<stop  offset="1" style="stop-color:#E8E8E8"/>
					</linearGradient>
					<path class="st23" d="M-165.7,235.1c21.9,17.3,51.1,22.9,78.8,20.2c7.4-0.7,14.7-2,21.9-3.7c19.7-4.7,38.6-12.7,56.7-22
						c36.4-18.7,69.7-42.6,103.2-66.4c29-20.6,58.2-41.2,89.6-58.3C206.7,92.7,231,82.5,256,75.7c50.7-13.8,104.1-13.8,149.8,10.6
						c19.7,10.5,37.3,25.2,54.8,39.6c25.2,20.9,50.4,41.3,81.9,48.2c38.8,8.5,78.5-6,111.6-26c1.8-1.1,3.5-2.1,5.2-3.2
						c60.6-38.2,107.9-96.4,131.4-164"/>
					
						<linearGradient id="SVGID_26_" gradientUnits="userSpaceOnUse" x1="-3.951" y1="480.7815" x2="717.0889" y2="-162.3079" gradientTransform="matrix(0.9778 0.2097 -0.2097 0.9778 20.8086 -86.0934)">
						<stop  offset="0" style="stop-color:#FFFFFF"/>
						<stop  offset="1" style="stop-color:#E8E8E8"/>
					</linearGradient>
					<path class="st24" d="M-166.8,236.4c21.7,17.9,51.3,24.8,79.5,22.9c28.2-1.8,55.2-11.6,80.4-23.9
						c69.6-33.9,128-86.5,196.1-123.3s154.5-56,222.8-18.7c48.4,26.4,83,78.4,137.1,89.3c39.3,7.9,79.6-8.6,112.7-30.6
						C724.9,110,772.6,46,794.6-26"/>
				</g>
				<g>
					
						<linearGradient id="SVGID_27_" gradientUnits="userSpaceOnUse" x1="-157.0709" y1="526.0873" x2="519.4064" y2="-77.257" gradientTransform="matrix(-0.9778 -0.2097 0.2097 -0.9778 632.5362 135.0774)">
						<stop  offset="0" style="stop-color:#FFFFFF;stop-opacity:0"/>
						<stop  offset="1" style="stop-color:#E6E6E6"/>
					</linearGradient>
					<path class="st25" d="M-2.9-94.2c64.7-28.7,146.2-17.6,216,8.5s132.3,66,199.7,97s144.3,53.2,215.9,39.5
						c60-11.4,109.2-46.7,149.1-86.5C817.7-75.6,850.3-120.8,891-160c23.4-22.6,56.5-44.6,91.2-34.9"/>
					
						<linearGradient id="SVGID_28_" gradientUnits="userSpaceOnUse" x1="-156.564" y1="529.207" x2="526.35" y2="-79.8782" gradientTransform="matrix(-0.9778 -0.2097 0.2097 -0.9778 632.5362 135.0774)">
						<stop  offset="0" style="stop-color:#FFFFFF;stop-opacity:0"/>
						<stop  offset="1" style="stop-color:#E6E6E6"/>
					</linearGradient>
					<path class="st26" d="M983.4-196.3c-27.4-8.3-54.4,2.8-76.5,18.6c-5.7,4.1-11.1,8.5-16.1,12.9c-14,12.5-27.1,25.8-39.9,39.4
						c-25.7,27.4-50,56.1-77.3,82.5C750-20,723.4,1.4,693.5,17.6c-21.8,11.8-45.4,20.9-70.9,25.8c-50.3,9.7-103.2,2.2-153.4-14.5
						c-21.8-7.3-43.1-16.3-63.6-26c-29.2-13.9-57.5-29.4-86.3-43.8c-35.8-18-71.7-34.3-109-46.7c-2-0.7-4-1.3-6-1.9
						c-69.6-22.2-149.2-29-211.5,2.1"/>
					
						<linearGradient id="SVGID_29_" gradientUnits="userSpaceOnUse" x1="-156.0597" y1="532.3234" x2="533.2902" y2="-82.5019" gradientTransform="matrix(-0.9778 -0.2097 0.2097 -0.9778 632.5362 135.0774)">
						<stop  offset="0" style="stop-color:#FFFFFF;stop-opacity:0"/>
						<stop  offset="1" style="stop-color:#E6E6E6"/>
					</linearGradient>
					<path class="st27" d="M984.6-197.5c-27.3-8.9-54.6,1-77.3,15.9c-5.9,3.8-11.5,8-16.7,12.3c-14.5,11.9-28.2,24.8-41.5,38.1
						c-26.7,26.8-51.8,55-79.7,81.2c-24.2,22.6-51.1,44-81.4,60.2c-22,11.8-45.8,21-71.5,25.9c-50.8,9.9-104.2,2.8-154.4-14.5
						C440.2,14,419,4.6,398.6-5.5c-29.2-14.4-57.5-30.3-86.8-44.3c-36.3-17.4-72.8-31.7-110.1-42c-2-0.5-4-1.1-5.9-1.6
						c-69.4-18.3-147.2-20.8-206.9,12.7"/>
					
						<linearGradient id="SVGID_30_" gradientUnits="userSpaceOnUse" x1="-155.5019" y1="535.4996" x2="540.3159" y2="-85.0944" gradientTransform="matrix(-0.9778 -0.2097 0.2097 -0.9778 632.5362 135.0774)">
						<stop  offset="0" style="stop-color:#FFFFFF;stop-opacity:0"/>
						<stop  offset="1" style="stop-color:#E6E6E6"/>
					</linearGradient>
					<path class="st28" d="M985.8-198.8c-27.1-9.6-54.9-0.8-78.2,13.1c-6.1,3.6-11.9,7.6-17.3,11.6c-15.1,11.4-29.3,23.9-43,36.9
						c-27.7,26.1-53.6,54-82.2,80C740.4-34.7,713-13.5,682.5,2.7c-22.2,11.8-46.3,21-72.1,26c-51.2,10.1-105.1,3.4-155.5-14.6
						C433,6.4,411.9-3.4,391.5-13.8c-29.2-14.9-57.6-31.2-87.3-44.8C267.3-75.5,230.3-87.8,193-96c-2-0.4-4-0.9-5.9-1.3
						c-69.3-14.4-145.2-12.6-202.4,23.3"/>
					
						<linearGradient id="SVGID_31_" gradientUnits="userSpaceOnUse" x1="-154.7916" y1="538.8461" x2="547.4984" y2="-87.5204" gradientTransform="matrix(-0.9778 -0.2097 0.2097 -0.9778 632.5362 135.0774)">
						<stop  offset="0" style="stop-color:#FFFFFF;stop-opacity:0"/>
						<stop  offset="1" style="stop-color:#E6E6E6"/>
					</linearGradient>
					<path class="st29" d="M987-200.1c-26.9-10.2-55.1-2.6-79,10.4c-6.2,3.4-12.2,7.1-17.8,11c-15.6,10.8-30.3,23-44.6,35.6
						c-28.7,25.5-55.5,53-84.7,78.8C735.6-42.1,707.8-21,677-4.7c-22.4,11.8-46.7,21-72.7,26.2c-51.6,10.3-106,4-156.5-14.6
						c-22-8.1-43-18.3-63.4-29.1c-29.1-15.5-57.6-32.1-87.8-45.2c-37.4-16.3-75-26.6-112.2-32.7c-2-0.3-3.9-0.6-5.9-0.9
						c-69.1-10.4-143.2-4.4-197.9,34"/>
					
						<linearGradient id="SVGID_32_" gradientUnits="userSpaceOnUse" x1="-153.9071" y1="542.3879" x2="554.8553" y2="-89.7513" gradientTransform="matrix(-0.9778 -0.2097 0.2097 -0.9778 632.5362 135.0774)">
						<stop  offset="0" style="stop-color:#FFFFFF;stop-opacity:0"/>
						<stop  offset="1" style="stop-color:#E6E6E6"/>
					</linearGradient>
					<path class="st30" d="M988.2-201.4c-26.8-10.9-55.4-4.4-79.9,7.7c-6.4,3.2-12.6,6.6-18.4,10.3c-16.1,10.3-31.4,22-46.1,34.4
						c-29.7,24.9-57.3,52-87.2,77.5c-25.9,22.1-54,43.1-85.2,59.4c-22.6,11.8-47.1,21-73.3,26.3c-52,10.4-106.9,4.5-157.5-14.6
						c-22-8.3-43-19-63.4-30.1c-29.1-16-57.6-33-88.3-45.7c-38-15.7-76.1-24.1-113.3-28.1c-2-0.2-3.9-0.4-5.9-0.6
						c-69-6.5-141.2,3.8-193.4,44.6"/>
					
						<linearGradient id="SVGID_33_" gradientUnits="userSpaceOnUse" x1="-152.924" y1="546.0397" x2="562.3107" y2="-91.8721" gradientTransform="matrix(-0.9778 -0.2097 0.2097 -0.9778 632.5362 135.0774)">
						<stop  offset="0" style="stop-color:#FFFFFF;stop-opacity:0"/>
						<stop  offset="1" style="stop-color:#E6E6E6"/>
					</linearGradient>
					<path class="st31" d="M989.4-202.6c-26.6-11.5-55.6-6.2-80.7,4.9c-6.6,2.9-12.9,6.2-19,9.7c-16.7,9.7-32.5,21.1-47.7,33.1
						c-30.6,24.2-59.1,51-89.7,76.3c-26.5,21.9-54.9,42.8-86.5,59.1C643.1-7.8,618.3,1.5,592,6.8c-52.5,10.6-107.8,5.1-158.6-14.6
						c-22.1-8.6-43-19.6-63.3-31.1c-29.1-16.5-57.6-33.9-88.8-46.1c-38.5-15.2-77.2-21.5-114.3-23.4c-2-0.1-3.9-0.2-5.9-0.3
						C92.3-111.3,22-96.8-27.7-53.6"/>
					
						<linearGradient id="SVGID_34_" gradientUnits="userSpaceOnUse" x1="-154.4798" y1="546.8445" x2="567.2271" y2="-96.8397" gradientTransform="matrix(-0.9778 -0.2097 0.2097 -0.9778 632.5362 135.0774)">
						<stop  offset="0" style="stop-color:#FFFFFF;stop-opacity:0"/>
						<stop  offset="1" style="stop-color:#E6E6E6"/>
					</linearGradient>
					<path class="st32" d="M990.7-203.9c-26.5-12.2-55.9-8-81.6,2.2c-6.8,2.7-13.3,5.7-19.5,9c-17.2,9.1-33.5,20.2-49.2,31.9
						c-31.6,23.6-60.9,50-92.1,75.1c-27,21.7-55.9,42.5-87.8,58.8c-23,11.8-48,21-74.5,26.5C533,10.3,477.2,5.2,426.3-15.2
						c-22.1-8.8-43-20.3-63.3-32.2c-29.1-17-57.7-34.8-89.2-46.6c-39.1-14.6-78.3-19-115.4-18.8c-2,0-3.9,0-5.9,0.1
						C83.8-111.2,15.3-92.4-31.9-46.8"/>
					
						<linearGradient id="SVGID_35_" gradientUnits="userSpaceOnUse" x1="-155.7801" y1="547.9354" x2="572.3985" y2="-101.521" gradientTransform="matrix(-0.9778 -0.2097 0.2097 -0.9778 632.5362 135.0774)">
						<stop  offset="0" style="stop-color:#FFFFFF;stop-opacity:0"/>
						<stop  offset="1" style="stop-color:#E6E6E6"/>
					</linearGradient>
					<path class="st33" d="M991.9-205.2c-26.3-12.8-56.1-9.8-82.5-0.6c-6.9,2.4-13.7,5.3-20.1,8.4c-17.8,8.6-34.6,19.2-50.8,30.6
						c-32.6,23-62.8,49-94.6,73.8c-27.6,21.5-56.9,42.2-89.1,58.5c-23.2,11.7-48.4,21.1-75.1,26.6c-53.3,11-109.6,6.3-160.7-14.6
						c-22.2-9.1-42.9-21-63.2-33.2c-29.1-17.5-57.7-35.7-89.7-47c-39.6-14.1-79.5-16.4-116.5-14.1c-2,0.1-3.9,0.3-5.9,0.4
						C75.3-111.1,8.7-88-36-40"/>
					
						<linearGradient id="SVGID_36_" gradientUnits="userSpaceOnUse" x1="-156.7974" y1="549.3432" x2="577.8524" y2="-105.8847" gradientTransform="matrix(-0.9778 -0.2097 0.2097 -0.9778 632.5362 135.0774)">
						<stop  offset="0" style="stop-color:#FFFFFF;stop-opacity:0"/>
						<stop  offset="1" style="stop-color:#E6E6E6"/>
					</linearGradient>
					<path class="st34" d="M993.1-206.5c-26.2-13.5-56.4-11.7-83.3-3.3c-7.1,2.2-14,4.8-20.7,7.7c-18.3,8-35.7,18.3-52.3,29.4
						c-33.6,22.3-64.6,48-97.1,72.6c-28.2,21.3-57.8,41.9-90.3,58.2c-23.4,11.7-48.9,21.1-75.7,26.7C519.9-4,463.1-8.3,411.9-29.8
						c-22.2-9.3-42.9-21.7-63.2-34.2c-29.1-18.1-57.7-36.6-90.2-47.5C218.4-125.1,178-125.5,141-121c-2,0.2-3.9,0.5-5.9,0.7
						C66.8-111,2-83.7-40.2-33.2"/>
					
						<linearGradient id="SVGID_37_" gradientUnits="userSpaceOnUse" x1="-157.5059" y1="551.0969" x2="583.6145" y2="-109.9021" gradientTransform="matrix(-0.9778 -0.2097 0.2097 -0.9778 632.5362 135.0774)">
						<stop  offset="0" style="stop-color:#FFFFFF;stop-opacity:0"/>
						<stop  offset="1" style="stop-color:#E6E6E6"/>
					</linearGradient>
					<path class="st35" d="M994.3-207.8c-26-14.1-56.7-13.5-84.2-6c-7.3,2-14.4,4.3-21.2,7.1c-18.8,7.5-36.8,17.4-53.9,28.1
						c-34.6,21.7-66.4,47-99.6,71.4c-28.7,21.1-58.8,41.6-91.6,57.9c-23.6,11.7-49.3,21.1-76.3,26.8
						c-54.2,11.4-111.4,7.5-162.8-14.6c-22.3-9.6-42.9-22.3-63.1-35.2c-29.1-18.6-57.7-37.5-90.7-48c-40.7-13-81.7-11.3-118.6-4.8
						c-2,0.3-3.9,0.7-5.9,1.1C58.2-110.9-4.6-79.3-44.3-26.4"/>
					
						<linearGradient id="SVGID_38_" gradientUnits="userSpaceOnUse" x1="-157.8853" y1="553.2192" x2="589.7048" y2="-113.55" gradientTransform="matrix(-0.9778 -0.2097 0.2097 -0.9778 632.5362 135.0774)">
						<stop  offset="0" style="stop-color:#FFFFFF;stop-opacity:0"/>
						<stop  offset="1" style="stop-color:#E6E6E6"/>
					</linearGradient>
					<path class="st36" d="M995.5-209c-25.9-14.7-56.9-15.3-85-8.8c-7.5,1.7-14.7,3.9-21.8,6.4c-19.4,7-37.8,16.4-55.5,26.9
						c-35.6,21-68.3,46-102.1,70.1c-29.3,20.9-59.7,41.3-92.9,57.6c-23.8,11.7-49.7,21.1-76.9,26.9C506.8-18.3,449-21.8,397.6-44.5
						c-22.3-9.8-42.8-23-63.1-36.3c-29.1-19.1-57.8-38.4-91.2-48.4c-41.3-12.4-82.8-8.8-119.7-0.2c-2,0.5-3.9,0.9-5.9,1.4
						C49.7-110.9-11.3-75-48.4-19.7"/>
					
						<linearGradient id="SVGID_39_" gradientUnits="userSpaceOnUse" x1="-157.9233" y1="555.7237" x2="596.1355" y2="-116.8149" gradientTransform="matrix(-0.9778 -0.2097 0.2097 -0.9778 632.5362 135.0774)">
						<stop  offset="0" style="stop-color:#FFFFFF;stop-opacity:0"/>
						<stop  offset="1" style="stop-color:#E6E6E6"/>
					</linearGradient>
					<path class="st37" d="M996.7-210.3c-25.7-15.4-57.2-17.1-85.9-11.5c-7.6,1.5-15.1,3.4-22.4,5.8c-19.9,6.4-38.9,15.5-57,25.6
						c-36.6,20.4-70.1,45-104.5,68.9c-29.9,20.7-60.7,41.1-94.2,57.4c-24,11.7-50.1,21.1-77.5,27c-55,11.8-113.3,8.7-164.9-14.7
						c-22.3-10.1-42.8-23.7-63-37.3c-29.1-19.6-57.8-39.3-91.7-48.9c-41.8-11.8-83.9-6.2-120.8,4.5c-2,0.6-3.9,1.2-5.8,1.8
						c-67.9,21-127,61.2-161.7,118.9"/>
					
						<linearGradient id="SVGID_40_" gradientUnits="userSpaceOnUse" x1="-157.6193" y1="558.6113" x2="602.9071" y2="-119.6957" gradientTransform="matrix(-0.9778 -0.2097 0.2097 -0.9778 632.5362 135.0774)">
						<stop  offset="0" style="stop-color:#FFFFFF;stop-opacity:0"/>
						<stop  offset="1" style="stop-color:#E6E6E6"/>
					</linearGradient>
					<path class="st38" d="M998-211.6c-25.6-16-57.5-19-86.8-14.3c-7.8,1.3-15.5,3-22.9,5.1c-20.4,5.9-40,14.6-58.6,24.4
						c-37.6,19.8-71.9,44-107,67.7c-30.4,20.5-61.6,40.8-95.5,57.1C603-60,576.6-50.5,549.1-44.6c-55.4,12-114.2,9.3-165.9-14.7
						c-22.4-10.4-42.8-24.3-63-38.3c-29-20.1-57.8-40.2-92.2-49.3c-42.4-11.3-85-3.7-121.8,9.1c-2,0.7-3.9,1.4-5.8,2.1
						c-67.7,25-125,69.4-157.2,129.5"/>
					
						<linearGradient id="SVGID_41_" gradientUnits="userSpaceOnUse" x1="-156.9843" y1="561.8699" x2="610.0087" y2="-122.2047" gradientTransform="matrix(-0.9778 -0.2097 0.2097 -0.9778 632.5362 135.0774)">
						<stop  offset="0" style="stop-color:#FFFFFF;stop-opacity:0"/>
						<stop  offset="1" style="stop-color:#E6E6E6"/>
					</linearGradient>
					<path class="st39" d="M999.2-212.9c-25.4-16.7-57.7-20.8-87.6-17c-8,1-15.8,2.5-23.5,4.5c-21,5.3-41,13.6-60.1,23.1
						c-38.5,19.1-73.7,43-109.5,66.5c-31,20.4-62.6,40.5-96.8,56.8c-24.4,11.6-51,21.2-78.7,27.2C487.2-39.8,427.9-42,376.1-66.6
						c-22.4-10.6-42.8-25-62.9-39.3c-29-20.6-57.8-41.1-92.7-49.8c-42.9-10.7-86.1-1.2-122.9,13.8c-2,0.8-3.9,1.6-5.8,2.4
						C24.2-110.6-31.2-61.9-60.9,0.7"/>
					
						<linearGradient id="SVGID_42_" gradientUnits="userSpaceOnUse" x1="-156.0398" y1="565.4749" x2="617.4187" y2="-124.3661" gradientTransform="matrix(-0.9778 -0.2097 0.2097 -0.9778 632.5362 135.0774)">
						<stop  offset="0" style="stop-color:#FFFFFF;stop-opacity:0"/>
						<stop  offset="1" style="stop-color:#E6E6E6"/>
					</linearGradient>
					<path class="st40" d="M1000.4-214.2c-25.3-17.3-58-22.7-88.5-19.7c-8.2,0.8-16.2,2.1-24,3.8c-21.5,4.8-42.1,12.7-61.7,21.9
						c-39.5,18.5-75.6,42-112,65.2c-31.6,20.2-63.5,40.2-98.1,56.5c-24.6,11.6-51.4,21.2-79.3,27.3c-56.3,12.3-116,10.5-168-14.7
						c-22.5-10.9-42.7-25.7-62.9-40.3c-29-21.2-57.9-42-93.1-50.2c-43.5-10.2-87.2,1.4-124,18.5c-2,0.9-3.9,1.8-5.8,2.8
						C15.7-110.5-37.8-57.5-65,7.5"/>
					
						<linearGradient id="SVGID_43_" gradientUnits="userSpaceOnUse" x1="-154.8149" y1="569.3939" x2="625.1078" y2="-126.2126" gradientTransform="matrix(-0.9778 -0.2097 0.2097 -0.9778 632.5362 135.0774)">
						<stop  offset="0" style="stop-color:#FFFFFF;stop-opacity:0"/>
						<stop  offset="1" style="stop-color:#E6E6E6"/>
					</linearGradient>
					<path class="st41" d="M1001.6-215.4c-25.1-18-58.3-24.5-89.3-22.5c-8.3,0.5-16.5,1.6-24.6,3.1c-22,4.2-43.2,11.8-63.2,20.6
						c-40.5,17.9-77.4,41-114.5,64c-32.2,20-64.5,39.9-99.3,56.2c-24.8,11.6-51.9,21.2-79.9,27.4c-56.7,12.5-116.9,11-169-14.7
						c-22.5-11.1-42.7-26.4-62.8-41.4c-29-21.7-57.9-42.9-93.6-50.7c-44-9.6-88.3,3.9-125,23.1c-1.9,1-3.9,2.1-5.8,3.1
						c-67.3,36.7-119,94-143.6,161.4"/>
					
						<linearGradient id="SVGID_44_" gradientUnits="userSpaceOnUse" x1="-153.3432" y1="573.5894" x2="633.0427" y2="-127.7815" gradientTransform="matrix(-0.9778 -0.2097 0.2097 -0.9778 632.5362 135.0774)">
						<stop  offset="0" style="stop-color:#FFFFFF;stop-opacity:0"/>
						<stop  offset="1" style="stop-color:#E6E6E6"/>
					</linearGradient>
					<path class="st42" d="M1002.8-216.7c-25-18.6-58.5-26.3-90.2-25.2c-31.7,1.1-61.9,10.2-90,21.9
						c-77.5,32.2-141.8,83.6-217.6,118.7c-75.7,35.1-172.5,52.1-250.5,12.8c-55.2-27.8-95.6-81.1-156.9-93.6
						c-44.5-9-89.4,6.5-126.1,27.8C1.5-113.8-50.5-50.8-73.3,21"/>
				</g>
			</g>
			<g>
				
					<linearGradient id="SVGID_45_" gradientUnits="userSpaceOnUse" x1="510.6035" y1="410.2939" x2="580.4482" y2="550.9957" gradientTransform="matrix(-0.9778 -0.2097 0.2097 -0.9778 815.2025 928.3691)">
					<stop  offset="0" style="stop-color:#FFFFFF"/>
					<stop  offset="1" style="stop-color:#E8E8E8"/>
				</linearGradient>
				<path class="st43" d="M133.3,389.2c153.1-18.4,308.2,65.6,459.2,35c75.8-15.4,142.2-58.3,206.4-100.5
					c18.8-12.4,45.1-24.5,62.2-9.7c11.8,10.3,11.9,28,10.7,43.4c-4.2,56.7-11.8,113.2-22.7,169c-11.5,58.8-29.9,121.7-78.9,157
					c-47.9,34.5-112.7,33.8-172,28.7C394.8,694.4,196.3,641,0.4,583.5c-19.6-5.8-40.7-12.6-52.4-29.1c-11.2-15.7-11.1-37-4.6-54.9
					C-30.5,427.5,62.9,397.7,133.3,389.2z"/>
				
					<linearGradient id="SVGID_46_" gradientUnits="userSpaceOnUse" x1="144.618" y1="191.6823" x2="828.291" y2="644.9785" gradientTransform="matrix(-0.9778 -0.2097 0.2097 -0.9778 815.2025 928.3691)">
					<stop  offset="0" style="stop-color:#FFFFFF"/>
					<stop  offset="1" style="stop-color:#E8E8E8"/>
				</linearGradient>
				<path class="st44" d="M-23.1,550.1c-15.4-18.4-25.8-41.1-29.6-64.7c-2.4-14.6-2.2-29.8,1.3-44.2c1.7-7.1,4.2-14,7.6-20.4
					c1.7-3.3,3.6-6.4,5.7-9.4c2.2-3.2,2.6-7.2,5.1-10.4c2.1-2.6,4.3-2.5,7.1-3.6c2.6-0.9,5.1-2.9,7.6-4.1c5.3-2.6,10.7-4.8,16.3-6.8
					c11.3-3.9,23.1-6.5,34.9-8c32.9-4.2,66.6-0.6,98.9,6.8c83.2,19,160.3,58.3,242.2,82.4c81.9,24.1,175,31.5,248.2-10.9
					c47.6-27.5,81.1-72.7,117.6-113.4c21.1-23.5,43.4-45.9,67-67c10.8-9.7,24-19.8,38.6-17.6c22.5,3.3,30.1,31.1,31.7,53.4
					c3.5,49.6,2.3,99.4-3.6,148.7c-6.9,57.5-21.7,117.1-62.1,159c-38.4,39.8-94.9,58-150.3,65.9c-94.7,13.5-191.2,1.4-286.2-10.7
					c-87.3-11.1-175.1-22.4-259.5-47.1C63.6,612.8,11.3,591.1-23.1,550.1z"/>
				
					<linearGradient id="SVGID_47_" gradientUnits="userSpaceOnUse" x1="522.231" y1="371.4453" x2="620.5825" y2="523.5353" gradientTransform="matrix(-0.9778 -0.2097 0.2097 -0.9778 815.2025 928.3691)">
					<stop  offset="0" style="stop-color:#FFFFFF"/>
					<stop  offset="1" style="stop-color:#E8E8E8"/>
				</linearGradient>
				<path class="st45" d="M158.6,441.9c81.5,11.2,150.4,65.2,229,89.4c97.9,30.1,211.6,9.1,286.8-58.7
					c22.6-20.4,41.9-44.7,67.4-61.5c25.5-16.8,60.5-24.6,87-8.9c20.2,12,31.1,35,36.3,57.7c20.3,87.6-28.8,180.1-102.6,232.3
					c-73.7,52.2-167.3,70.2-258.4,74.1c-117.8,5-236-11.4-350.8-39C102.5,715,50.8,699.9,9.4,668.3c-37.1-28.4-75.7-85.3-61.9-134.2
					c5.9-21,34.3-41.2,51.7-53.2c21.4-14.8,45.3-25.9,70.5-32.8C98.5,440.2,128.9,437.8,158.6,441.9z"/>
				
					<linearGradient id="SVGID_48_" gradientUnits="userSpaceOnUse" x1="114.6822" y1="554.2225" x2="676.3689" y2="53.2589" gradientTransform="matrix(-0.9778 -0.2097 0.2097 -0.9778 815.2025 928.3691)">
					<stop  offset="0" style="stop-color:#FFFFFF"/>
					<stop  offset="1" style="stop-color:#E8E8E8"/>
				</linearGradient>
				<path class="st46" d="M127.3,502.5c55.5-7.3,111.6,8.1,163.9,28.3c52.3,20.1,102.9,45.3,157.2,58.9
					c46.1,11.5,96.7,14.1,139.1-6.5c46.4-22.5,75.5-68.5,99.4-113.6c23.9-45.1,46.3-93,86-125.5c22.6-18.5,56.8-30.8,81-13.9
					c23.6,16.4,24.1,49.9,22.2,78.2c-2.7,40.2-5.4,80.7-15.4,119.7c-10,39-27.8,76.9-56.9,105.1c-41.8,40.4-101.5,56.5-159.1,67.8
					c-175.5,34.5-359.7,38.4-532.8-8.6c-27.2-7.4-54.7-16.3-77.2-33c-22.8-16.9-47.9-48-30.5-75.3c17.7-27.8,38.5-50.4,68.9-65.2
					C90,510.5,108.5,505,127.3,502.5z"/>
				
					<linearGradient id="SVGID_49_" gradientUnits="userSpaceOnUse" x1="120.6926" y1="485.688" x2="504.2225" y2="155.792" gradientTransform="matrix(-0.9778 -0.2097 0.2097 -0.9778 815.2025 928.3691)">
					<stop  offset="0" style="stop-color:#FFFFFF"/>
					<stop  offset="1" style="stop-color:#E8E8E8"/>
				</linearGradient>
				<path class="st47" d="M599.5,385.6c-48.4,39.3-94.3,88.9-156.5,98.2c-54.8,8.2-110.6-17.6-165.6-10.8
					c-91.6,11.4-153.2,108.1-244.8,119.8c-13.1,1.7-26.6,1.6-39.2,5.5c-12.6,3.9-24.6,13.2-26.7,26c-3.5,21.6,20.7,36.9,41.5,44.8
					c64.3,24.5,132.2,38.4,200.1,49.2c129.5,20.5,260.6,30,391.6,30.3c58.6,0.1,120.7-2.7,169.1-34.7
					C830.4,673.3,854,597,873.3,526.8c18.1-65.7,40.2-143.7,14.5-210.7c-9.6-25.1-64.8-19.4-87.5-17.6
					c-34.5,2.8-68.2,12.2-99.8,25.7C664,339.7,630.1,360.8,599.5,385.6z"/>
				<g>
					
						<linearGradient id="SVGID_50_" gradientUnits="userSpaceOnUse" x1="142.2948" y1="748.4958" x2="757.329" y2="199.952" gradientTransform="matrix(-0.9778 -0.2097 0.2097 -0.9778 815.2025 928.3691)">
						<stop  offset="0" style="stop-color:#FFFFFF"/>
						<stop  offset="1" style="stop-color:#E8E8E8"/>
					</linearGradient>
					<path class="st48" d="M18.9,402.1c58.2-30.1,130.3-21,191.6,3.3s115.9,62.5,175,91.7c59.1,29.2,126.8,49.4,190.8,34.1
						c53.6-12.8,98.1-49.1,134.5-89.7c36.3-40.6,66.4-86.4,103.4-126.4c21.3-23,51.2-45.7,81.8-37"/>
					
						<linearGradient id="SVGID_51_" gradientUnits="userSpaceOnUse" x1="142.6361" y1="751.3103" x2="763.8817" y2="197.2267" gradientTransform="matrix(-0.9778 -0.2097 0.2097 -0.9778 815.2025 928.3691)">
						<stop  offset="0" style="stop-color:#FFFFFF"/>
						<stop  offset="1" style="stop-color:#E8E8E8"/>
					</linearGradient>
					<path class="st49" d="M897.2,276.9c-24.1-7.6-48.4,4.1-68.3,20.4c-5.2,4.2-10.1,8.7-14.6,13.2c-12.7,12.7-24.7,26.3-36.4,40.1
						c-23.5,27.9-45.7,57-70.6,83.9c-21.5,23.3-45.6,45.2-72.6,62.1c-19.6,12.3-40.8,21.9-63.6,27.4c-44.9,10.8-91.7,4.7-135.9-10.8
						c-19.2-6.7-37.9-15.2-55.8-24.4c-25.6-13.1-50.4-27.8-75.6-41.5c-31.4-17-62.9-32.4-95.7-43.8c-1.7-0.6-3.5-1.2-5.2-1.8
						C141.6,381.4,71.1,376.5,15,409"/>
					
						<linearGradient id="SVGID_52_" gradientUnits="userSpaceOnUse" x1="143.0593" y1="754.2162" x2="770.5461" y2="194.5661" gradientTransform="matrix(-0.9778 -0.2097 0.2097 -0.9778 815.2025 928.3691)">
						<stop  offset="0" style="stop-color:#FFFFFF"/>
						<stop  offset="1" style="stop-color:#E8E8E8"/>
					</linearGradient>
					<path class="st50" d="M898.3,275.6c-24-8.2-48.5,2.3-69,17.7c-5.3,4-10.4,8.3-15.1,12.6c-13.2,12.2-25.6,25.4-37.7,38.9
						c-24.4,27.3-47.3,56-72.8,82.7c-22,23.1-46.5,45-73.7,61.9c-19.8,12.3-41.2,22-64.1,27.5c-45.3,11-92.6,5.3-136.8-10.8
						c-19.3-7-37.9-15.8-55.8-25.4c-25.6-13.7-50.4-28.7-76-42c-31.9-16.5-63.9-29.8-96.7-39.2c-1.7-0.5-3.5-1-5.2-1.5
						C134.1,381.7,65.1,381,11.2,415.8"/>
					
						<linearGradient id="SVGID_53_" gradientUnits="userSpaceOnUse" x1="143.623" y1="757.2792" x2="777.3511" y2="192.0625" gradientTransform="matrix(-0.9778 -0.2097 0.2097 -0.9778 815.2025 928.3691)">
						<stop  offset="0" style="stop-color:#FFFFFF"/>
						<stop  offset="1" style="stop-color:#E8E8E8"/>
					</linearGradient>
					<path class="st51" d="M899.4,274.3c-23.8-8.9-48.7,0.5-69.7,15c-5.5,3.7-10.7,7.8-15.6,12c-13.7,11.7-26.6,24.5-39.1,37.7
						C749.8,365.6,726,394,700,420.5c-22.5,22.9-47.3,44.7-74.8,61.6c-20,12.3-41.6,22-64.6,27.6c-45.7,11.2-93.4,5.9-137.7-10.7
						c-19.3-7.2-37.8-16.5-55.7-26.4c-25.5-14.2-50.4-29.6-76.4-42.4c-32.4-15.9-64.9-27.3-97.8-34.5c-1.7-0.4-3.5-0.8-5.2-1.1
						C126.5,382,59,385.5,7.4,422.7"/>
					
						<linearGradient id="SVGID_54_" gradientUnits="userSpaceOnUse" x1="144.3469" y1="760.5214" x2="784.3162" y2="189.7382" gradientTransform="matrix(-0.9778 -0.2097 0.2097 -0.9778 815.2025 928.3691)">
						<stop  offset="0" style="stop-color:#FFFFFF"/>
						<stop  offset="1" style="stop-color:#E8E8E8"/>
					</linearGradient>
					<path class="st52" d="M900.5,273c-23.7-9.5-48.9-1.2-70.4,12.2c-5.6,3.5-11,7.4-16.1,11.3c-14.1,11.1-27.5,23.6-40.4,36.5
						c-26.1,26-50.5,54.1-77.1,80.4c-23,22.8-48.1,44.4-76,61.4c-20.2,12.3-42,22-65.2,27.8c-46.1,11.4-94.2,6.5-138.6-10.7
						c-19.3-7.5-37.8-17.2-55.6-27.4c-25.5-14.7-50.4-30.5-76.9-42.9c-32.9-15.3-66-24.7-98.9-29.8c-1.7-0.3-3.5-0.5-5.2-0.8
						c-61.1-8.7-127-0.9-176.6,38.5"/>
					
						<linearGradient id="SVGID_55_" gradientUnits="userSpaceOnUse" x1="145.2536" y1="763.9679" x2="791.4637" y2="187.6186" gradientTransform="matrix(-0.9778 -0.2097 0.2097 -0.9778 815.2025 928.3691)">
						<stop  offset="0" style="stop-color:#FFFFFF"/>
						<stop  offset="1" style="stop-color:#E8E8E8"/>
					</linearGradient>
					<path class="st53" d="M901.6,271.7c-23.5-10.2-49.1-3-71.1,9.5c-5.8,3.3-11.3,6.9-16.6,10.7c-14.6,10.6-28.4,22.7-41.8,35.3
						c-26.9,25.4-52.1,53.1-79.3,79.2c-23.5,22.6-49,44.2-77.1,61.1c-20.3,12.3-42.4,22-65.7,27.9c-46.5,11.6-95,7.1-139.6-10.7
						c-19.4-7.7-37.7-17.8-55.5-28.4c-25.5-15.2-50.4-31.4-77.3-43.3c-33.4-14.8-67-22.1-99.9-25.2c-1.7-0.2-3.5-0.3-5.2-0.4
						c-61.1-4.8-125.4,7.2-172.8,49"/>
					
						<linearGradient id="SVGID_56_" gradientUnits="userSpaceOnUse" x1="146.3679" y1="767.6468" x2="798.8185" y2="185.7316" gradientTransform="matrix(-0.9778 -0.2097 0.2097 -0.9778 815.2025 928.3691)">
						<stop  offset="0" style="stop-color:#FFFFFF"/>
						<stop  offset="1" style="stop-color:#E8E8E8"/>
					</linearGradient>
					<path class="st54" d="M902.7,270.4c-23.4-10.8-49.2-4.8-71.8,6.8c-5.9,3.1-11.6,6.5-17.1,10.1c-15.1,10-29.4,21.8-43.1,34.1
						c-27.8,24.8-53.7,52.2-81.5,78.1c-24,22.4-49.8,43.9-78.2,60.8c-20.5,12.3-42.7,22.1-66.2,28c-46.8,11.8-95.9,7.7-140.5-10.7
						c-19.4-8-37.7-18.5-55.5-29.5c-25.5-15.7-50.4-32.3-77.7-43.8c-33.9-14.2-68.1-19.6-101-20.5c-1.7-0.1-3.5-0.1-5.2-0.1
						C103.8,382.8,41,399-4.2,443.2"/>
					
						<linearGradient id="SVGID_57_" gradientUnits="userSpaceOnUse" x1="147.7171" y1="771.5886" x2="806.4078" y2="184.108" gradientTransform="matrix(-0.9778 -0.2097 0.2097 -0.9778 815.2025 928.3691)">
						<stop  offset="0" style="stop-color:#FFFFFF"/>
						<stop  offset="1" style="stop-color:#E8E8E8"/>
					</linearGradient>
					<path class="st55" d="M903.9,269.1c-23.2-11.5-49.4-6.6-72.5,4.1c-6.1,2.8-12,6-17.6,9.4c-15.5,9.5-30.3,20.9-44.5,32.9
						c-28.7,24.2-55.3,51.2-83.6,76.9c-24.5,22.2-50.7,43.6-79.4,60.6c-20.7,12.2-43.1,22.1-66.8,28.1c-47.2,12-96.7,8.3-141.4-10.7
						c-19.4-8.2-37.7-19.2-55.4-30.5c-25.4-16.2-50.4-33.2-78.1-44.2c-34.4-13.6-69.1-17-102-15.9c-1.7,0.1-3.5,0.1-5.2,0.2
						C96.3,383.1,35,403.5-8,450"/>
					
						<linearGradient id="SVGID_58_" gradientUnits="userSpaceOnUse" x1="149.3294" y1="775.8249" x2="814.2594" y2="182.7795" gradientTransform="matrix(-0.9778 -0.2097 0.2097 -0.9778 815.2025 928.3691)">
						<stop  offset="0" style="stop-color:#FFFFFF"/>
						<stop  offset="1" style="stop-color:#E8E8E8"/>
					</linearGradient>
					<path class="st56" d="M905,267.8c-23.1-12.1-49.6-8.4-73.2,1.4c-6.2,2.6-12.3,5.6-18,8.8c-16,9-31.2,20-45.8,31.7
						c-29.5,23.6-56.9,50.3-85.8,75.7c-25,22.1-51.5,43.4-80.5,60.3C580.7,458,558,467.9,534.2,474c-47.6,12.2-97.5,8.9-142.3-10.7
						c-19.5-8.5-37.6-19.8-55.3-31.5c-25.4-16.8-50.4-34.1-78.6-44.6c-34.9-13-70.2-14.4-103.1-11.2c-1.7,0.2-3.5,0.4-5.2,0.6
						C88.7,383.4,29,408-11.8,456.9"/>
					
						<linearGradient id="SVGID_59_" gradientUnits="userSpaceOnUse" x1="150.2017" y1="779.231" x2="821.3702" y2="180.6215" gradientTransform="matrix(-0.9778 -0.2097 0.2097 -0.9778 815.2025 928.3691)">
						<stop  offset="0" style="stop-color:#FFFFFF"/>
						<stop  offset="1" style="stop-color:#E8E8E8"/>
					</linearGradient>
					<path class="st57" d="M906.1,266.5c-22.9-12.8-49.8-10.2-73.9-1.3c-6.4,2.4-12.6,5.1-18.5,8.2c-16.5,8.4-32.1,19.1-47.2,30.5
						c-30.4,23-58.5,49.3-88,74.6c-25.5,21.9-52.3,43.1-81.6,60.1c-21.1,12.2-43.9,22.1-67.8,28.3c-48,12.4-98.3,9.5-143.3-10.7
						c-19.5-8.8-37.6-20.5-55.3-32.5c-25.4-17.3-50.4-35-79-45.1c-35.4-12.5-71.2-11.9-104.2-6.6c-1.7,0.3-3.5,0.6-5.2,0.9
						C81.1,383.7,23,412.5-15.7,463.7"/>
					
						<linearGradient id="SVGID_60_" gradientUnits="userSpaceOnUse" x1="149.733" y1="781.133" x2="827.1392" y2="176.9602" gradientTransform="matrix(-0.9778 -0.2097 0.2097 -0.9778 815.2025 928.3691)">
						<stop  offset="0" style="stop-color:#FFFFFF"/>
						<stop  offset="1" style="stop-color:#E8E8E8"/>
					</linearGradient>
					<path class="st58" d="M907.2,265.2c-22.8-13.4-50-12-74.6-4c-6.5,2.1-12.9,4.7-19,7.5c-16.9,7.9-33.1,18.2-48.5,29.3
						c-31.2,22.4-60.1,48.4-90.1,73.4c-26,21.7-53.2,42.8-82.8,59.8c-21.2,12.2-44.3,22.2-68.4,28.5
						c-48.4,12.6-99.1,10.1-144.2-10.7c-19.5-9-37.5-21.2-55.2-33.5c-25.4-17.8-50.4-35.9-79.4-45.5c-35.9-11.9-72.3-9.3-105.2-1.9
						c-1.8,0.4-3.5,0.8-5.2,1.2C73.6,384,17,417-19.5,470.6"/>
					
						<linearGradient id="SVGID_61_" gradientUnits="userSpaceOnUse" x1="149.5972" y1="783.4077" x2="833.2399" y2="173.6725" gradientTransform="matrix(-0.9778 -0.2097 0.2097 -0.9778 815.2025 928.3691)">
						<stop  offset="0" style="stop-color:#FFFFFF"/>
						<stop  offset="1" style="stop-color:#E8E8E8"/>
					</linearGradient>
					<path class="st59" d="M908.3,263.9c-22.6-14-50.2-13.9-75.3-6.7c-6.7,1.9-13.2,4.2-19.5,6.9c-17.4,7.4-34,17.3-49.9,28.1
						c-32.1,21.8-61.7,47.4-92.3,72.2c-26.5,21.5-54,42.6-83.9,59.6c-21.4,12.2-44.7,22.2-68.9,28.6c-48.7,12.8-100,10.8-145.1-10.6
						c-19.6-9.3-37.5-21.9-55.1-34.6c-25.4-18.3-50.4-36.8-79.8-46c-36.4-11.3-73.3-6.8-106.3,2.7c-1.8,0.5-3.5,1-5.2,1.6
						C66,384.3,11,421.5-23.4,477.4"/>
					
						<linearGradient id="SVGID_62_" gradientUnits="userSpaceOnUse" x1="149.8006" y1="786.0623" x2="839.679" y2="170.7656" gradientTransform="matrix(-0.9778 -0.2097 0.2097 -0.9778 815.2025 928.3691)">
						<stop  offset="0" style="stop-color:#FFFFFF"/>
						<stop  offset="1" style="stop-color:#E8E8E8"/>
					</linearGradient>
					<path class="st60" d="M909.4,262.6c-22.5-14.7-50.4-15.7-76-9.4c-6.8,1.7-13.5,3.8-20,6.3c-17.8,6.9-34.9,16.4-51.2,26.9
						c-33,21.2-63.3,46.4-94.5,71.1c-27,21.3-54.9,42.3-85,59.3c-21.6,12.2-45,22.2-69.4,28.7c-49.1,13-100.8,11.4-146.1-10.6
						c-19.6-9.5-37.5-22.5-55.1-35.6c-25.3-18.8-50.4-37.7-80.2-46.4c-36.8-10.8-74.3-4.2-107.3,7.4c-1.8,0.6-3.5,1.2-5.2,1.9
						C58.5,384.6,5,426-27.2,484.2"/>
					
						<linearGradient id="SVGID_63_" gradientUnits="userSpaceOnUse" x1="150.3375" y1="789.0902" x2="846.4503" y2="168.233" gradientTransform="matrix(-0.9778 -0.2097 0.2097 -0.9778 815.2025 928.3691)">
						<stop  offset="0" style="stop-color:#FFFFFF"/>
						<stop  offset="1" style="stop-color:#E8E8E8"/>
					</linearGradient>
					<path class="st61" d="M910.5,261.3c-22.3-15.3-50.6-17.5-76.7-12.1c-7,1.4-13.8,3.3-20.5,5.6c-18.3,6.3-35.8,15.5-52.6,25.7
						c-33.8,20.6-64.9,45.5-96.7,69.9c-27.5,21.2-55.7,42-86.2,59.1c-21.8,12.2-45.4,22.3-70,28.8c-49.5,13.2-101.6,12-147-10.6
						c-19.6-9.8-37.4-23.2-55-36.6c-25.3-19.3-50.4-38.6-80.7-46.9c-37.3-10.2-75.4-1.6-108.4,12c-1.8,0.7-3.5,1.5-5.2,2.2
						C50.9,384.9-1,430.5-31,491.1"/>
					
						<linearGradient id="SVGID_64_" gradientUnits="userSpaceOnUse" x1="151.1896" y1="792.4711" x2="853.5358" y2="166.0545" gradientTransform="matrix(-0.9778 -0.2097 0.2097 -0.9778 815.2025 928.3691)">
						<stop  offset="0" style="stop-color:#FFFFFF"/>
						<stop  offset="1" style="stop-color:#E8E8E8"/>
					</linearGradient>
					<path class="st62" d="M911.6,260c-22.2-16-50.8-19.3-77.4-14.8c-7.1,1.2-14.1,2.9-21,5c-18.7,5.8-36.8,14.6-53.9,24.4
						c-34.7,20-66.5,44.5-98.8,68.7c-28,21-56.5,41.8-87.3,58.8c-21.9,12.2-45.8,22.3-70.5,28.9c-49.9,13.4-102.4,12.6-147.9-10.6
						c-19.7-10-37.4-23.9-54.9-37.6c-25.3-19.8-50.4-39.5-81.1-47.3c-37.8-9.6-76.4,0.9-109.5,16.7c-1.8,0.8-3.5,1.7-5.2,2.6
						C43.3,385.2-7,435-34.9,497.9"/>
					
						<linearGradient id="SVGID_65_" gradientUnits="userSpaceOnUse" x1="152.3296" y1="796.1744" x2="860.9081" y2="164.1992" gradientTransform="matrix(-0.9778 -0.2097 0.2097 -0.9778 815.2025 928.3691)">
						<stop  offset="0" style="stop-color:#FFFFFF"/>
						<stop  offset="1" style="stop-color:#E8E8E8"/>
					</linearGradient>
					<path class="st63" d="M912.7,258.7c-22-16.6-51-21.1-78.1-17.5c-7.3,1-14.4,2.4-21.4,4.4c-19.2,5.3-37.7,13.6-55.3,23.2
						c-35.5,19.4-68.1,43.6-101,67.6c-28.5,20.8-57.4,41.5-88.4,58.6c-22.1,12.2-46.2,22.3-71,29c-50.3,13.6-103.3,13.2-148.8-10.6
						c-19.7-10.3-37.3-24.5-54.8-38.6c-25.3-20.4-50.4-40.4-81.5-47.8c-38.3-9.1-77.5,3.5-110.5,21.3c-1.8,0.9-3.5,1.9-5.2,2.9
						C35.8,385.5-13,439.5-38.7,504.8"/>
					
						<linearGradient id="SVGID_66_" gradientUnits="userSpaceOnUse" x1="153.7195" y1="800.1573" x2="868.5291" y2="162.6246" gradientTransform="matrix(-0.9778 -0.2097 0.2097 -0.9778 815.2025 928.3691)">
						<stop  offset="0" style="stop-color:#FFFFFF"/>
						<stop  offset="1" style="stop-color:#E8E8E8"/>
					</linearGradient>
					<path class="st64" d="M913.9,257.4c-21.9-17.3-51.1-22.9-78.8-20.2c-7.4,0.7-14.7,2-21.9,3.7c-19.7,4.7-38.6,12.7-56.7,22
						c-36.4,18.7-69.7,42.6-103.2,66.4c-29,20.6-58.2,41.2-89.6,58.3c-22.3,12.1-46.6,22.3-71.6,29.2
						c-50.7,13.8-104.1,13.8-149.8-10.6c-19.7-10.5-37.3-25.2-54.8-39.6c-25.2-20.9-50.4-41.3-81.9-48.2c-38.8-8.5-78.5,6-111.6,26
						c-1.8,1.1-3.5,2.1-5.2,3.2C28.2,385.8-19,444-42.6,511.6"/>
					
						<linearGradient id="SVGID_67_" gradientUnits="userSpaceOnUse" x1="155.2935" y1="804.3464" x2="876.3333" y2="161.257" gradientTransform="matrix(-0.9778 -0.2097 0.2097 -0.9778 815.2025 928.3691)">
						<stop  offset="0" style="stop-color:#FFFFFF"/>
						<stop  offset="1" style="stop-color:#E8E8E8"/>
					</linearGradient>
					<path class="st65" d="M915,256.1c-21.7-17.9-51.3-24.8-79.5-22.9c-28.2,1.8-55.2,11.6-80.4,23.9
						c-69.6,33.9-128,86.5-196.1,123.3c-68.1,36.7-154.5,56-222.8,18.7c-48.4-26.4-83-78.4-137.1-89.3
						c-39.3-7.9-79.6,8.6-112.7,30.6c-63.2,42.1-110.9,106-132.9,178"/>
				</g>
				<g>
					
						<linearGradient id="SVGID_68_" gradientUnits="userSpaceOnUse" x1="-316.3155" y1="202.5224" x2="360.1618" y2="-400.8219" gradientTransform="matrix(0.9778 0.2097 -0.2097 0.9778 203.475 707.1983)">
						<stop  offset="0" style="stop-color:#FFFFFF;stop-opacity:0"/>
						<stop  offset="1" style="stop-color:#E6E6E6"/>
					</linearGradient>
					<path class="st66" d="M751,586.7c-64.7,28.7-146.2,17.6-216-8.5c-69.7-26.2-132.3-66-199.7-97s-144.3-53.2-215.9-39.5
						c-60,11.4-109.2,46.7-149.1,86.5c-39.8,39.8-72.5,85.1-113.1,124.3c-23.4,22.6-56.5,44.6-91.2,34.9"/>
					
						<linearGradient id="SVGID_69_" gradientUnits="userSpaceOnUse" x1="-315.8085" y1="205.6422" x2="367.1055" y2="-403.4431" gradientTransform="matrix(0.9778 0.2097 -0.2097 0.9778 203.475 707.1983)">
						<stop  offset="0" style="stop-color:#FFFFFF;stop-opacity:0"/>
						<stop  offset="1" style="stop-color:#E6E6E6"/>
					</linearGradient>
					<path class="st67" d="M-235.2,688.8c27.4,8.3,54.4-2.8,76.5-18.6c5.7-4.1,11.1-8.5,16.1-12.9c14-12.5,27.1-25.8,39.9-39.4
						c25.7-27.4,50-56.1,77.3-82.5c23.6-22.8,50.2-44.3,80.1-60.5C76.4,463,100,453.9,125.5,449c50.3-9.7,103.2-2.2,153.4,14.5
						c21.8,7.3,43.1,16.3,63.6,26c29.2,13.9,57.5,29.4,86.3,43.8c35.8,18,71.7,34.3,109,46.7c2,0.7,4,1.3,6,1.9
						c69.6,22.2,149.2,29,211.5-2.1"/>
					
						<linearGradient id="SVGID_70_" gradientUnits="userSpaceOnUse" x1="-315.3043" y1="208.7585" x2="374.0456" y2="-406.0668" gradientTransform="matrix(0.9778 0.2097 -0.2097 0.9778 203.475 707.1983)">
						<stop  offset="0" style="stop-color:#FFFFFF;stop-opacity:0"/>
						<stop  offset="1" style="stop-color:#E6E6E6"/>
					</linearGradient>
					<path class="st68" d="M-236.4,690c27.3,8.9,54.6-1,77.3-15.9c5.9-3.8,11.5-8,16.7-12.3c14.5-11.9,28.2-24.8,41.5-38.1
						c26.7-26.8,51.8-55,79.7-81.2c24.2-22.6,51.1-44,81.4-60.2c22-11.8,45.8-21,71.5-25.9c50.8-9.9,104.2-2.8,154.4,14.5
						c21.9,7.5,43.1,17,63.5,27.1c29.2,14.4,57.5,30.3,86.8,44.3c36.3,17.4,72.8,31.7,110.1,42c2,0.5,4,1.1,5.9,1.6
						c69.4,18.3,147.2,20.8,206.9-12.7"/>
					
						<linearGradient id="SVGID_71_" gradientUnits="userSpaceOnUse" x1="-314.7464" y1="211.9346" x2="381.0713" y2="-408.6593" gradientTransform="matrix(0.9778 0.2097 -0.2097 0.9778 203.475 707.1983)">
						<stop  offset="0" style="stop-color:#FFFFFF;stop-opacity:0"/>
						<stop  offset="1" style="stop-color:#E6E6E6"/>
					</linearGradient>
					<path class="st69" d="M-237.6,691.3c27.1,9.6,54.9,0.8,78.2-13.1c6.1-3.6,11.9-7.6,17.3-11.6c15.1-11.4,29.3-23.9,43-36.9
						c27.7-26.1,53.6-54,82.2-80c24.7-22.5,52.1-43.7,82.6-59.9c22.2-11.8,46.3-21,72.1-26c51.2-10.1,105.1-3.4,155.5,14.6
						c21.9,7.8,43.1,17.6,63.5,28.1c29.2,14.9,57.6,31.2,87.3,44.8c36.9,16.9,73.9,29.2,111.1,37.4c2,0.4,4,0.9,5.9,1.3
						c69.3,14.4,145.2,12.6,202.4-23.3"/>
					
						<linearGradient id="SVGID_72_" gradientUnits="userSpaceOnUse" x1="-314.0363" y1="215.2813" x2="388.2538" y2="-411.0853" gradientTransform="matrix(0.9778 0.2097 -0.2097 0.9778 203.475 707.1983)">
						<stop  offset="0" style="stop-color:#FFFFFF;stop-opacity:0"/>
						<stop  offset="1" style="stop-color:#E6E6E6"/>
					</linearGradient>
					<path class="st70" d="M-238.9,692.6c26.9,10.2,55.1,2.6,79-10.4c6.2-3.4,12.2-7.1,17.8-11c15.6-10.8,30.3-23,44.6-35.6
						c28.7-25.5,55.5-53,84.7-78.8c25.3-22.3,53-43.4,83.9-59.6c22.4-11.8,46.7-21,72.7-26.2c51.6-10.3,106-4,156.5,14.6
						c22,8.1,43,18.3,63.4,29.1c29.1,15.5,57.6,32.1,87.8,45.2c37.4,16.3,75,26.6,112.2,32.7c2,0.3,3.9,0.6,5.9,0.9
						c69.1,10.4,143.2,4.4,197.9-34"/>
					
						<linearGradient id="SVGID_73_" gradientUnits="userSpaceOnUse" x1="-313.1517" y1="218.823" x2="395.6107" y2="-413.3161" gradientTransform="matrix(0.9778 0.2097 -0.2097 0.9778 203.475 707.1983)">
						<stop  offset="0" style="stop-color:#FFFFFF;stop-opacity:0"/>
						<stop  offset="1" style="stop-color:#E6E6E6"/>
					</linearGradient>
					<path class="st71" d="M-240.1,693.9c26.8,10.9,55.4,4.4,79.9-7.7c6.4-3.2,12.6-6.6,18.4-10.3c16.1-10.3,31.4-22,46.1-34.4
						c29.7-24.9,57.3-52,87.2-77.5c25.9-22.1,54-43.1,85.2-59.4c22.6-11.8,47.1-21,73.3-26.3c52-10.4,106.9-4.5,157.5,14.6
						c22,8.3,43,19,63.4,30.1c29.1,16,57.6,33,88.3,45.7c38,15.7,76.1,24.1,113.3,28.1c2,0.2,3.9,0.4,5.9,0.6
						c69,6.5,141.2-3.8,193.4-44.6"/>
					
						<linearGradient id="SVGID_74_" gradientUnits="userSpaceOnUse" x1="-312.1685" y1="222.4748" x2="403.0662" y2="-415.437" gradientTransform="matrix(0.9778 0.2097 -0.2097 0.9778 203.475 707.1983)">
						<stop  offset="0" style="stop-color:#FFFFFF;stop-opacity:0"/>
						<stop  offset="1" style="stop-color:#E6E6E6"/>
					</linearGradient>
					<path class="st72" d="M-241.3,695.1c26.6,11.5,55.6,6.2,80.7-4.9c6.6-2.9,12.9-6.2,19-9.7c16.7-9.7,32.5-21.1,47.7-33.1
						c30.6-24.2,59.1-51,89.7-76.3c26.5-21.9,54.9-42.8,86.5-59.1c22.8-11.8,47.6-21,73.9-26.4c52.5-10.6,107.8-5.1,158.6,14.6
						c22.1,8.6,43,19.6,63.3,31.1c29.1,16.5,57.6,33.9,88.8,46.1c38.5,15.2,77.2,21.5,114.3,23.4c2,0.1,3.9,0.2,5.9,0.3
						c68.8,2.6,139.1-12,188.9-55.2"/>
					
						<linearGradient id="SVGID_75_" gradientUnits="userSpaceOnUse" x1="-313.7243" y1="223.2797" x2="407.9826" y2="-420.4045" gradientTransform="matrix(0.9778 0.2097 -0.2097 0.9778 203.475 707.1983)">
						<stop  offset="0" style="stop-color:#FFFFFF;stop-opacity:0"/>
						<stop  offset="1" style="stop-color:#E6E6E6"/>
					</linearGradient>
					<path class="st73" d="M-242.5,696.4c26.5,12.2,55.9,8,81.6-2.2c6.8-2.7,13.3-5.7,19.5-9c17.2-9.1,33.5-20.2,49.2-31.9
						c31.6-23.6,60.9-50,92.1-75.1c27-21.7,55.9-42.5,87.8-58.8c23-11.8,48-21,74.5-26.5c52.9-10.8,108.7-5.7,159.6,14.6
						c22.1,8.8,43,20.3,63.3,32.2c29.1,17,57.7,34.8,89.2,46.6c39.1,14.6,78.3,19,115.4,18.8c2,0,3.9,0,5.9-0.1
						c68.7-1.4,137.1-20.2,184.3-65.8"/>
					
						<linearGradient id="SVGID_76_" gradientUnits="userSpaceOnUse" x1="-315.0247" y1="224.3705" x2="413.1539" y2="-425.0858" gradientTransform="matrix(0.9778 0.2097 -0.2097 0.9778 203.475 707.1983)">
						<stop  offset="0" style="stop-color:#FFFFFF;stop-opacity:0"/>
						<stop  offset="1" style="stop-color:#E6E6E6"/>
					</linearGradient>
					<path class="st74" d="M-243.7,697.7c26.3,12.8,56.1,9.8,82.5,0.6c6.9-2.4,13.7-5.3,20.1-8.4c17.8-8.6,34.6-19.2,50.8-30.6
						c32.6-23,62.8-49,94.6-73.8c27.6-21.5,56.9-42.2,89.1-58.5c23.2-11.7,48.4-21.1,75.1-26.6c53.3-11,109.6-6.3,160.7,14.6
						c22.2,9.1,42.9,21,63.2,33.2c29.1,17.5,57.7,35.7,89.7,47c39.6,14.1,79.5,16.4,116.5,14.1c2-0.1,3.9-0.3,5.9-0.4
						c68.5-5.3,135.1-28.4,179.8-76.4"/>
					
						<linearGradient id="SVGID_77_" gradientUnits="userSpaceOnUse" x1="-316.042" y1="225.7783" x2="418.6079" y2="-429.4497" gradientTransform="matrix(0.9778 0.2097 -0.2097 0.9778 203.475 707.1983)">
						<stop  offset="0" style="stop-color:#FFFFFF;stop-opacity:0"/>
						<stop  offset="1" style="stop-color:#E6E6E6"/>
					</linearGradient>
					<path class="st75" d="M-244.9,699c26.2,13.5,56.4,11.7,83.3,3.3c7.1-2.2,14-4.8,20.7-7.7c18.3-8,35.7-18.3,52.3-29.4
						c33.6-22.3,64.6-48,97.1-72.6c28.2-21.3,57.8-41.9,90.3-58.2c23.4-11.7,48.9-21.1,75.7-26.7c53.7-11.2,110.5-6.9,161.7,14.6
						c22.2,9.3,42.9,21.7,63.2,34.2c29.1,18.1,57.7,36.6,90.2,47.5c40.2,13.5,80.6,13.9,117.6,9.5c2-0.2,3.9-0.5,5.9-0.7
						c68.4-9.2,133.1-36.6,175.3-87"/>
					
						<linearGradient id="SVGID_78_" gradientUnits="userSpaceOnUse" x1="-316.7504" y1="227.532" x2="424.3699" y2="-433.4669" gradientTransform="matrix(0.9778 0.2097 -0.2097 0.9778 203.475 707.1983)">
						<stop  offset="0" style="stop-color:#FFFFFF;stop-opacity:0"/>
						<stop  offset="1" style="stop-color:#E6E6E6"/>
					</linearGradient>
					<path class="st76" d="M-246.2,700.3c26,14.1,56.7,13.5,84.2,6c7.3-2,14.4-4.3,21.2-7.1c18.8-7.5,36.8-17.4,53.9-28.1
						c34.6-21.7,66.4-47,99.6-71.4c28.7-21.1,58.8-41.6,91.6-57.9c23.6-11.7,49.3-21.1,76.3-26.8c54.2-11.4,111.4-7.5,162.8,14.6
						c22.3,9.6,42.9,22.3,63.1,35.2c29.1,18.6,57.7,37.5,90.7,48c40.7,13,81.7,11.3,118.6,4.8c2-0.3,3.9-0.7,5.9-1.1
						c68.2-13.2,131.1-44.8,170.8-97.7"/>
					
						<linearGradient id="SVGID_79_" gradientUnits="userSpaceOnUse" x1="-317.1298" y1="229.6543" x2="430.4603" y2="-437.1149" gradientTransform="matrix(0.9778 0.2097 -0.2097 0.9778 203.475 707.1983)">
						<stop  offset="0" style="stop-color:#FFFFFF;stop-opacity:0"/>
						<stop  offset="1" style="stop-color:#E6E6E6"/>
					</linearGradient>
					<path class="st77" d="M-247.4,701.5c25.9,14.7,56.9,15.3,85,8.8c7.5-1.7,14.7-3.9,21.8-6.4c19.4-7,37.8-16.4,55.5-26.9
						c35.6-21,68.3-46,102.1-70.1c29.3-20.9,59.7-41.3,92.9-57.6c23.8-11.7,49.7-21.1,76.9-26.9c54.6-11.6,112.3-8.1,163.8,14.6
						c22.3,9.8,42.8,23,63.1,36.3c29.1,19.1,57.8,38.4,91.2,48.4c41.3,12.4,82.8,8.8,119.7,0.2c2-0.5,3.9-0.9,5.9-1.4
						c68.1-17.1,129-53,166.2-108.3"/>
					
						<linearGradient id="SVGID_80_" gradientUnits="userSpaceOnUse" x1="-317.1679" y1="232.1588" x2="436.8909" y2="-440.3798" gradientTransform="matrix(0.9778 0.2097 -0.2097 0.9778 203.475 707.1983)">
						<stop  offset="0" style="stop-color:#FFFFFF;stop-opacity:0"/>
						<stop  offset="1" style="stop-color:#E6E6E6"/>
					</linearGradient>
					<path class="st78" d="M-248.6,702.8c25.7,15.4,57.2,17.1,85.9,11.5c7.6-1.5,15.1-3.4,22.4-5.8c19.9-6.4,38.9-15.5,57-25.6
						c36.6-20.4,70.1-45,104.5-68.9c29.9-20.7,60.7-41.1,94.2-57.4c24-11.7,50.1-21.1,77.5-27c55-11.8,113.3-8.7,164.9,14.7
						c22.3,10.1,42.8,23.7,63,37.3c29.1,19.6,57.8,39.3,91.7,48.9c41.8,11.8,83.9,6.2,120.8-4.5c2-0.6,3.9-1.2,5.8-1.8
						c67.9-21,127-61.2,161.7-118.9"/>
					
						<linearGradient id="SVGID_81_" gradientUnits="userSpaceOnUse" x1="-316.864" y1="235.0465" x2="443.6625" y2="-443.2606" gradientTransform="matrix(0.9778 0.2097 -0.2097 0.9778 203.475 707.1983)">
						<stop  offset="0" style="stop-color:#FFFFFF;stop-opacity:0"/>
						<stop  offset="1" style="stop-color:#E6E6E6"/>
					</linearGradient>
					<path class="st79" d="M-249.8,704.1c25.6,16,57.5,19,86.8,14.3c7.8-1.3,15.5-3,22.9-5.1c20.4-5.9,40-14.6,58.6-24.4
						c37.6-19.8,71.9-44,107-67.7c30.4-20.5,61.6-40.8,95.5-57.1c24.2-11.7,50.6-21.1,78.1-27.1c55.4-12,114.2-9.3,165.9,14.7
						c22.4,10.4,42.8,24.3,63,38.3c29,20.1,57.8,40.2,92.2,49.3c42.4,11.3,85,3.7,121.8-9.1c2-0.7,3.9-1.4,5.8-2.1
						c67.7-25,125-69.4,157.2-129.5"/>
					
						<linearGradient id="SVGID_82_" gradientUnits="userSpaceOnUse" x1="-316.2289" y1="238.305" x2="450.7642" y2="-445.7696" gradientTransform="matrix(0.9778 0.2097 -0.2097 0.9778 203.475 707.1983)">
						<stop  offset="0" style="stop-color:#FFFFFF;stop-opacity:0"/>
						<stop  offset="1" style="stop-color:#E6E6E6"/>
					</linearGradient>
					<path class="st80" d="M-251,705.4c25.4,16.7,57.7,20.8,87.6,17c8-1,15.8-2.5,23.5-4.5c21-5.3,41-13.6,60.1-23.1
						c38.5-19.1,73.7-43,109.5-66.5c31-20.4,62.6-40.5,96.8-56.8c24.4-11.6,51-21.2,78.7-27.2c55.9-12.1,115.1-9.9,166.9,14.7
						c22.4,10.6,42.8,25,62.9,39.3c29,20.6,57.8,41.1,92.7,49.8c42.9,10.7,86.1,1.2,122.9-13.8c2-0.8,3.9-1.6,5.8-2.4
						c67.6-28.9,123-77.6,152.7-140.1"/>
					
						<linearGradient id="SVGID_83_" gradientUnits="userSpaceOnUse" x1="-315.2843" y1="241.9101" x2="458.1742" y2="-447.931" gradientTransform="matrix(0.9778 0.2097 -0.2097 0.9778 203.475 707.1983)">
						<stop  offset="0" style="stop-color:#FFFFFF;stop-opacity:0"/>
						<stop  offset="1" style="stop-color:#E6E6E6"/>
					</linearGradient>
					<path class="st81" d="M-252.2,706.7c25.3,17.3,58,22.7,88.5,19.7c8.2-0.8,16.2-2.1,24-3.8c21.5-4.8,42.1-12.7,61.7-21.9
						c39.5-18.5,75.6-42,112-65.2c31.6-20.2,63.5-40.2,98.1-56.5c24.6-11.6,51.4-21.2,79.3-27.3c56.3-12.3,116-10.5,168,14.7
						c22.5,10.9,42.7,25.7,62.9,40.3c29,21.2,57.9,42,93.1,50.2c43.5,10.2,87.2-1.4,124-18.5c2-0.9,3.9-1.8,5.8-2.8
						C732.5,603,786,550,813.2,485"/>
					
						<linearGradient id="SVGID_84_" gradientUnits="userSpaceOnUse" x1="-314.0595" y1="245.829" x2="465.8633" y2="-449.7775" gradientTransform="matrix(0.9778 0.2097 -0.2097 0.9778 203.475 707.1983)">
						<stop  offset="0" style="stop-color:#FFFFFF;stop-opacity:0"/>
						<stop  offset="1" style="stop-color:#E6E6E6"/>
					</linearGradient>
					<path class="st82" d="M-253.5,707.9c25.1,18,58.3,24.5,89.3,22.5c8.3-0.5,16.5-1.6,24.6-3.1c22-4.2,43.2-11.8,63.2-20.6
						c40.5-17.9,77.4-41,114.5-64c32.2-20,64.5-39.9,99.3-56.2c24.8-11.6,51.9-21.2,79.9-27.4c56.7-12.5,116.9-11,169,14.7
						c22.5,11.1,42.7,26.4,62.8,41.4c29,21.7,57.9,42.9,93.6,50.7c44,9.6,88.3-3.9,125-23.1c1.9-1,3.9-2.1,5.8-3.1
						c67.3-36.7,119-94,143.6-161.4"/>
					
						<linearGradient id="SVGID_85_" gradientUnits="userSpaceOnUse" x1="-312.5877" y1="250.0246" x2="473.7982" y2="-451.3464" gradientTransform="matrix(0.9778 0.2097 -0.2097 0.9778 203.475 707.1983)">
						<stop  offset="0" style="stop-color:#FFFFFF;stop-opacity:0"/>
						<stop  offset="1" style="stop-color:#E6E6E6"/>
					</linearGradient>
					<path class="st83" d="M-254.7,709.2c25,18.6,58.5,26.3,90.2,25.2c31.7-1.1,61.9-10.2,90-21.9C3,680.4,67.4,629,143.1,593.9
						c75.7-35.1,172.5-52.1,250.5-12.8c55.2,27.8,95.6,81.1,156.9,93.6c44.5,9,89.4-6.5,126.1-27.8
						c70.1-40.6,122.1-103.6,144.9-175.4"/>
				</g>
			</g>
		</g>
	</g>
</g>
</svg>
